solid OpenSCAD_Model
  facet normal 1 -0 0
    outer loop
      vertex 62.3 0 3
      vertex 62.3 42.3 0
      vertex 62.3 42.3 3
    endloop
  endfacet
  facet normal 1 0 0
    outer loop
      vertex 62.3 42.3 0
      vertex 62.3 0 3
      vertex 62.3 0 0
    endloop
  endfacet
  facet normal -0 0 1
    outer loop
      vertex 6.11353 35.2234 3
      vertex 13.0598 27.0279 3
      vertex 6.53168 35.4365 3
    endloop
  endfacet
  facet normal 0 0 1
    outer loop
      vertex 11.15 21.15 3
      vertex 7.07658 6.11353 3
      vertex 7.15 5.65 3
    endloop
  endfacet
  facet normal -0 0 1
    outer loop
      vertex 5.65 35.15 3
      vertex 13.0598 27.0279 3
      vertex 6.11353 35.2234 3
    endloop
  endfacet
  facet normal 0 0 1
    outer loop
      vertex 11.15 21.15 3
      vertex 6.86353 6.53168 3
      vertex 7.07658 6.11353 3
    endloop
  endfacet
  facet normal 0 0 1
    outer loop
      vertex 13.0598 27.0279 3
      vertex 5.65 35.15 3
      vertex 11.6394 24.2402 3
    endloop
  endfacet
  facet normal 0 0 1
    outer loop
      vertex 11.15 21.15 3
      vertex 6.53168 6.86353 3
      vertex 6.86353 6.53168 3
    endloop
  endfacet
  facet normal 0 0 1
    outer loop
      vertex 5.18647 35.2234 3
      vertex 11.6394 24.2402 3
      vertex 5.65 35.15 3
    endloop
  endfacet
  facet normal 0 0 1
    outer loop
      vertex 11.15 21.15 3
      vertex 6.11353 7.07658 3
      vertex 6.53168 6.86353 3
    endloop
  endfacet
  facet normal 0 0 1
    outer loop
      vertex 11.6394 24.2402 3
      vertex 5.18647 35.2234 3
      vertex 11.15 21.15 3
    endloop
  endfacet
  facet normal 0 0 1
    outer loop
      vertex 11.15 21.15 3
      vertex 5.65 7.15 3
      vertex 6.11353 7.07658 3
    endloop
  endfacet
  facet normal 0 0 1
    outer loop
      vertex 4.76832 35.4365 3
      vertex 11.15 21.15 3
      vertex 5.18647 35.2234 3
    endloop
  endfacet
  facet normal 0 0 1
    outer loop
      vertex 11.15 21.15 3
      vertex 5.18647 7.07658 3
      vertex 5.65 7.15 3
    endloop
  endfacet
  facet normal 0 0 1
    outer loop
      vertex 4.76832 6.86353 3
      vertex 11.15 21.15 3
      vertex 4.76832 35.4365 3
    endloop
  endfacet
  facet normal 0 0 1
    outer loop
      vertex 11.15 21.15 3
      vertex 4.76832 6.86353 3
      vertex 5.18647 7.07658 3
    endloop
  endfacet
  facet normal 0 0 1
    outer loop
      vertex 4.43647 35.7683 3
      vertex 4.76832 6.86353 3
      vertex 4.76832 35.4365 3
    endloop
  endfacet
  facet normal 0 0 1
    outer loop
      vertex 4.43647 35.7683 3
      vertex 4.43647 6.53168 3
      vertex 4.76832 6.86353 3
    endloop
  endfacet
  facet normal 0 0 1
    outer loop
      vertex 4.22341 36.1865 3
      vertex 4.43647 6.53168 3
      vertex 4.43647 35.7683 3
    endloop
  endfacet
  facet normal 0 0 1
    outer loop
      vertex 4.22341 36.1865 3
      vertex 4.22341 6.11353 3
      vertex 4.43647 6.53168 3
    endloop
  endfacet
  facet normal 0 0 1
    outer loop
      vertex 0 42.3 3
      vertex 4.22341 36.1865 3
      vertex 4.15 36.65 3
    endloop
  endfacet
  facet normal 0 0 1
    outer loop
      vertex 4.22341 36.1865 3
      vertex 0 42.3 3
      vertex 4.22341 6.11353 3
    endloop
  endfacet
  facet normal 0 0 1
    outer loop
      vertex 30.6606 24.2402 3
      vertex 50.2775 32.1805 3
      vertex 37.1135 35.2234 3
    endloop
  endfacet
  facet normal 0 0 1
    outer loop
      vertex 50.2775 10.1195 3
      vertex 38.0766 6.11353 3
      vertex 38.15 5.65 3
    endloop
  endfacet
  facet normal 0 0 1
    outer loop
      vertex 50.8305 31.6275 3
      vertex 31.15 21.15 3
      vertex 50.8305 10.6725 3
    endloop
  endfacet
  facet normal 0 0 1
    outer loop
      vertex 50.2775 10.1195 3
      vertex 37.8635 6.53168 3
      vertex 38.0766 6.11353 3
    endloop
  endfacet
  facet normal 0 0 1
    outer loop
      vertex 50.8305 10.6725 3
      vertex 31.15 21.15 3
      vertex 50.2775 10.1195 3
    endloop
  endfacet
  facet normal 0 0 1
    outer loop
      vertex 50.2775 10.1195 3
      vertex 37.5317 6.86353 3
      vertex 37.8635 6.53168 3
    endloop
  endfacet
  facet normal 0 -0 1
    outer loop
      vertex 31.15 21.15 3
      vertex 50.2775 32.1805 3
      vertex 30.6606 24.2402 3
    endloop
  endfacet
  facet normal -0 0 1
    outer loop
      vertex 30.6606 18.0598 3
      vertex 50.2775 10.1195 3
      vertex 31.15 21.15 3
    endloop
  endfacet
  facet normal 0 0 1
    outer loop
      vertex 30.6606 24.2402 3
      vertex 37.1135 35.2234 3
      vertex 36.65 35.15 3
    endloop
  endfacet
  facet normal 0 0 1
    outer loop
      vertex 50.2775 10.1195 3
      vertex 37.1135 7.07658 3
      vertex 37.5317 6.86353 3
    endloop
  endfacet
  facet normal 0 0 1
    outer loop
      vertex 29.2402 27.0279 3
      vertex 36.65 35.15 3
      vertex 36.1865 35.2234 3
    endloop
  endfacet
  facet normal 0 0 1
    outer loop
      vertex 50.2775 10.1195 3
      vertex 30.6606 18.0598 3
      vertex 37.1135 7.07658 3
    endloop
  endfacet
  facet normal 0 0 1
    outer loop
      vertex 29.2402 27.0279 3
      vertex 36.1865 35.2234 3
      vertex 35.7683 35.4365 3
    endloop
  endfacet
  facet normal 0 0 1
    outer loop
      vertex 37.1135 7.07658 3
      vertex 30.6606 18.0598 3
      vertex 36.65 7.15 3
    endloop
  endfacet
  facet normal 0 0 1
    outer loop
      vertex 29.2402 27.0279 3
      vertex 35.7683 35.4365 3
      vertex 35.4365 35.7683 3
    endloop
  endfacet
  facet normal -0 0 1
    outer loop
      vertex 29.2402 15.2721 3
      vertex 36.65 7.15 3
      vertex 30.6606 18.0598 3
    endloop
  endfacet
  facet normal 0 0 1
    outer loop
      vertex 27.0279 29.2402 3
      vertex 35.4365 35.7683 3
      vertex 35.2234 36.1865 3
    endloop
  endfacet
  facet normal 0 0 1
    outer loop
      vertex 36.65 7.15 3
      vertex 29.2402 15.2721 3
      vertex 36.1865 7.07658 3
    endloop
  endfacet
  facet normal 0 0 1
    outer loop
      vertex 27.0279 29.2402 3
      vertex 35.2234 36.1865 3
      vertex 35.15 36.65 3
    endloop
  endfacet
  facet normal 0 0 1
    outer loop
      vertex 36.1865 7.07658 3
      vertex 29.2402 15.2721 3
      vertex 35.7683 6.86353 3
    endloop
  endfacet
  facet normal -0 0 1
    outer loop
      vertex 54.6776 9.42254 3
      vertex 62.3 0 3
      vertex 54.6776 32.8775 3
    endloop
  endfacet
  facet normal 0 0 1
    outer loop
      vertex 62.3 0 3
      vertex 54.6776 9.42254 3
      vertex 54.8 8.65 3
    endloop
  endfacet
  facet normal -0 0 1
    outer loop
      vertex 54.3225 32.1805 3
      vertex 54.6776 9.42254 3
      vertex 54.6776 32.8775 3
    endloop
  endfacet
  facet normal 0 0 1
    outer loop
      vertex 54.3225 32.1805 3
      vertex 54.3225 10.1195 3
      vertex 54.6776 9.42254 3
    endloop
  endfacet
  facet normal -0 0 1
    outer loop
      vertex 53.7695 31.6275 3
      vertex 54.3225 10.1195 3
      vertex 54.3225 32.1805 3
    endloop
  endfacet
  facet normal 0 0 1
    outer loop
      vertex 53.7695 31.6275 3
      vertex 53.7695 10.6725 3
      vertex 54.3225 10.1195 3
    endloop
  endfacet
  facet normal -0 0 1
    outer loop
      vertex 53.0725 31.2724 3
      vertex 53.7695 10.6725 3
      vertex 53.7695 31.6275 3
    endloop
  endfacet
  facet normal 0 0 1
    outer loop
      vertex 53.0725 31.2724 3
      vertex 53.0725 11.0276 3
      vertex 53.7695 10.6725 3
    endloop
  endfacet
  facet normal -0 0 1
    outer loop
      vertex 52.3 31.15 3
      vertex 53.0725 11.0276 3
      vertex 53.0725 31.2724 3
    endloop
  endfacet
  facet normal 0 0 1
    outer loop
      vertex 52.3 31.15 3
      vertex 52.3 11.15 3
      vertex 53.0725 11.0276 3
    endloop
  endfacet
  facet normal 0 0 1
    outer loop
      vertex 51.5275 31.2724 3
      vertex 52.3 11.15 3
      vertex 52.3 31.15 3
    endloop
  endfacet
  facet normal 0 0 1
    outer loop
      vertex 51.5275 31.2724 3
      vertex 51.5275 11.0276 3
      vertex 52.3 11.15 3
    endloop
  endfacet
  facet normal 0 0 1
    outer loop
      vertex 50.8305 31.6275 3
      vertex 51.5275 11.0276 3
      vertex 51.5275 31.2724 3
    endloop
  endfacet
  facet normal 0 0 1
    outer loop
      vertex 50.8305 31.6275 3
      vertex 50.8305 10.6725 3
      vertex 51.5275 11.0276 3
    endloop
  endfacet
  facet normal 0 0 1
    outer loop
      vertex 49.9224 32.8775 3
      vertex 37.5317 35.4365 3
      vertex 50.2775 32.1805 3
    endloop
  endfacet
  facet normal -0 0 1
    outer loop
      vertex 37.1135 35.2234 3
      vertex 50.2775 32.1805 3
      vertex 37.5317 35.4365 3
    endloop
  endfacet
  facet normal -0 0 1
    outer loop
      vertex 37.8635 35.7683 3
      vertex 49.8 33.65 3
      vertex 38.0766 36.1865 3
    endloop
  endfacet
  facet normal 0 0 1
    outer loop
      vertex 49.8 33.65 3
      vertex 37.8635 35.7683 3
      vertex 49.9224 32.8775 3
    endloop
  endfacet
  facet normal 0 0 1
    outer loop
      vertex 49.9224 34.4225 3
      vertex 38.0766 36.1865 3
      vertex 49.8 33.65 3
    endloop
  endfacet
  facet normal -0 0 1
    outer loop
      vertex 37.5317 35.4365 3
      vertex 49.9224 32.8775 3
      vertex 37.8635 35.7683 3
    endloop
  endfacet
  facet normal 0 0 1
    outer loop
      vertex 54.6776 32.8775 3
      vertex 62.3 42.3 3
      vertex 54.8 33.65 3
    endloop
  endfacet
  facet normal 0 0 1
    outer loop
      vertex 62.3 42.3 3
      vertex 54.6776 34.4225 3
      vertex 54.8 33.65 3
    endloop
  endfacet
  facet normal 0 0 1
    outer loop
      vertex 62.3 42.3 3
      vertex 54.3225 35.1195 3
      vertex 54.6776 34.4225 3
    endloop
  endfacet
  facet normal 0 0 1
    outer loop
      vertex 62.3 42.3 3
      vertex 53.7695 35.6725 3
      vertex 54.3225 35.1195 3
    endloop
  endfacet
  facet normal 0 0 1
    outer loop
      vertex 62.3 42.3 3
      vertex 53.0725 36.0276 3
      vertex 53.7695 35.6725 3
    endloop
  endfacet
  facet normal 0 0 1
    outer loop
      vertex 62.3 42.3 3
      vertex 52.3 36.15 3
      vertex 53.0725 36.0276 3
    endloop
  endfacet
  facet normal 0 0 1
    outer loop
      vertex 62.3 42.3 3
      vertex 51.5275 36.0276 3
      vertex 52.3 36.15 3
    endloop
  endfacet
  facet normal -0 0 1
    outer loop
      vertex 37.5317 37.8635 3
      vertex 51.5275 36.0276 3
      vertex 62.3 42.3 3
    endloop
  endfacet
  facet normal 0 0 1
    outer loop
      vertex 50.2775 10.1195 3
      vertex 38.15 5.65 3
      vertex 49.9224 9.42254 3
    endloop
  endfacet
  facet normal -0 0 1
    outer loop
      vertex 38.0766 36.1865 3
      vertex 49.9224 34.4225 3
      vertex 38.15 36.65 3
    endloop
  endfacet
  facet normal 0 0 1
    outer loop
      vertex 50.2775 35.1195 3
      vertex 38.15 36.65 3
      vertex 49.9224 34.4225 3
    endloop
  endfacet
  facet normal 0 0 1
    outer loop
      vertex 38.0766 37.1135 3
      vertex 50.2775 35.1195 3
      vertex 50.8305 35.6725 3
    endloop
  endfacet
  facet normal 0 0 1
    outer loop
      vertex 51.5275 36.0276 3
      vertex 37.5317 37.8635 3
      vertex 50.8305 35.6725 3
    endloop
  endfacet
  facet normal 0 0 1
    outer loop
      vertex 50.2775 35.1195 3
      vertex 38.0766 37.1135 3
      vertex 38.15 36.65 3
    endloop
  endfacet
  facet normal 0 0 1
    outer loop
      vertex 50.8305 35.6725 3
      vertex 37.8635 37.5317 3
      vertex 38.0766 37.1135 3
    endloop
  endfacet
  facet normal 0 0 1
    outer loop
      vertex 50.8305 35.6725 3
      vertex 37.5317 37.8635 3
      vertex 37.8635 37.5317 3
    endloop
  endfacet
  facet normal 0 0 1
    outer loop
      vertex 62.3 42.3 3
      vertex 37.1135 38.0766 3
      vertex 37.5317 37.8635 3
    endloop
  endfacet
  facet normal 0 0 1
    outer loop
      vertex 62.3 42.3 3
      vertex 36.65 38.15 3
      vertex 37.1135 38.0766 3
    endloop
  endfacet
  facet normal -0 0 1
    outer loop
      vertex 0 42.3 3
      vertex 36.65 38.15 3
      vertex 62.3 42.3 3
    endloop
  endfacet
  facet normal 0 0 1
    outer loop
      vertex 35.7683 6.86353 3
      vertex 29.2402 15.2721 3
      vertex 35.4365 6.53168 3
    endloop
  endfacet
  facet normal 0 0 1
    outer loop
      vertex 24.2402 30.6606 3
      vertex 35.15 36.65 3
      vertex 35.2234 37.1135 3
    endloop
  endfacet
  facet normal 0 0 1
    outer loop
      vertex 50.2775 32.1805 3
      vertex 31.15 21.15 3
      vertex 50.8305 31.6275 3
    endloop
  endfacet
  facet normal 0 0 1
    outer loop
      vertex 36.65 35.15 3
      vertex 29.2402 27.0279 3
      vertex 30.6606 24.2402 3
    endloop
  endfacet
  facet normal 0 0 1
    outer loop
      vertex 24.2402 30.6606 3
      vertex 35.2234 37.1135 3
      vertex 35.4365 37.5317 3
    endloop
  endfacet
  facet normal 0 0 1
    outer loop
      vertex 35.4365 35.7683 3
      vertex 27.0279 29.2402 3
      vertex 29.2402 27.0279 3
    endloop
  endfacet
  facet normal 0 0 1
    outer loop
      vertex 6.86353 37.5317 3
      vertex 35.4365 37.5317 3
      vertex 35.7683 37.8635 3
    endloop
  endfacet
  facet normal 0 0 1
    outer loop
      vertex 35.15 36.65 3
      vertex 24.2402 30.6606 3
      vertex 27.0279 29.2402 3
    endloop
  endfacet
  facet normal 0 0 1
    outer loop
      vertex 35.4365 37.5317 3
      vertex 21.15 31.15 3
      vertex 24.2402 30.6606 3
    endloop
  endfacet
  facet normal 0 0 1
    outer loop
      vertex 6.53168 37.8635 3
      vertex 35.7683 37.8635 3
      vertex 36.1865 38.0766 3
    endloop
  endfacet
  facet normal 0 0 1
    outer loop
      vertex 35.4365 37.5317 3
      vertex 6.86353 37.5317 3
      vertex 21.15 31.15 3
    endloop
  endfacet
  facet normal 0 0 1
    outer loop
      vertex 15.2721 29.2402 3
      vertex 6.86353 35.7683 3
      vertex 13.0598 27.0279 3
    endloop
  endfacet
  facet normal -0 0 1
    outer loop
      vertex 6.86353 35.7683 3
      vertex 15.2721 29.2402 3
      vertex 7.07658 36.1865 3
    endloop
  endfacet
  facet normal -0 0 1
    outer loop
      vertex 7.07658 36.1865 3
      vertex 15.2721 29.2402 3
      vertex 7.15 36.65 3
    endloop
  endfacet
  facet normal 0 0 1
    outer loop
      vertex 18.0598 30.6606 3
      vertex 7.15 36.65 3
      vertex 15.2721 29.2402 3
    endloop
  endfacet
  facet normal 0 0 1
    outer loop
      vertex 21.15 31.15 3
      vertex 6.86353 37.5317 3
      vertex 18.0598 30.6606 3
    endloop
  endfacet
  facet normal 0 0 1
    outer loop
      vertex 36.65 38.15 3
      vertex 0 42.3 3
      vertex 36.1865 38.0766 3
    endloop
  endfacet
  facet normal 0 0 1
    outer loop
      vertex 18.0598 30.6606 3
      vertex 7.07658 37.1135 3
      vertex 7.15 36.65 3
    endloop
  endfacet
  facet normal 0 0 1
    outer loop
      vertex 18.0598 30.6606 3
      vertex 6.86353 37.5317 3
      vertex 7.07658 37.1135 3
    endloop
  endfacet
  facet normal 0 0 1
    outer loop
      vertex 35.7683 37.8635 3
      vertex 6.53168 37.8635 3
      vertex 6.86353 37.5317 3
    endloop
  endfacet
  facet normal 0 0 1
    outer loop
      vertex 36.1865 38.0766 3
      vertex 0 42.3 3
      vertex 6.53168 37.8635 3
    endloop
  endfacet
  facet normal 0 0 1
    outer loop
      vertex 6.53168 37.8635 3
      vertex 0 42.3 3
      vertex 6.11353 38.0766 3
    endloop
  endfacet
  facet normal 0 0 1
    outer loop
      vertex 0 0 3
      vertex 4.22341 6.11353 3
      vertex 0 42.3 3
    endloop
  endfacet
  facet normal 0 0 1
    outer loop
      vertex 4.22341 37.1135 3
      vertex 0 42.3 3
      vertex 4.15 36.65 3
    endloop
  endfacet
  facet normal 0 0 1
    outer loop
      vertex 4.43647 37.5317 3
      vertex 0 42.3 3
      vertex 4.22341 37.1135 3
    endloop
  endfacet
  facet normal 0 0 1
    outer loop
      vertex 4.76832 37.8635 3
      vertex 0 42.3 3
      vertex 4.43647 37.5317 3
    endloop
  endfacet
  facet normal 0 0 1
    outer loop
      vertex 5.18647 38.0766 3
      vertex 0 42.3 3
      vertex 4.76832 37.8635 3
    endloop
  endfacet
  facet normal 0 0 1
    outer loop
      vertex 5.65 38.15 3
      vertex 0 42.3 3
      vertex 5.18647 38.0766 3
    endloop
  endfacet
  facet normal 0 0 1
    outer loop
      vertex 6.11353 38.0766 3
      vertex 0 42.3 3
      vertex 5.65 38.15 3
    endloop
  endfacet
  facet normal 0 0 1
    outer loop
      vertex 62.3 42.3 3
      vertex 54.6776 32.8775 3
      vertex 62.3 0 3
    endloop
  endfacet
  facet normal -0 0 1
    outer loop
      vertex 54.6776 7.87746 3
      vertex 62.3 0 3
      vertex 54.8 8.65 3
    endloop
  endfacet
  facet normal -0 0 1
    outer loop
      vertex 54.3225 7.18054 3
      vertex 62.3 0 3
      vertex 54.6776 7.87746 3
    endloop
  endfacet
  facet normal -0 0 1
    outer loop
      vertex 53.7695 6.62746 3
      vertex 62.3 0 3
      vertex 54.3225 7.18054 3
    endloop
  endfacet
  facet normal -0 0 1
    outer loop
      vertex 53.0725 6.27236 3
      vertex 62.3 0 3
      vertex 53.7695 6.62746 3
    endloop
  endfacet
  facet normal -0 0 1
    outer loop
      vertex 52.3 6.15 3
      vertex 62.3 0 3
      vertex 53.0725 6.27236 3
    endloop
  endfacet
  facet normal 0 0 1
    outer loop
      vertex 51.5275 6.27236 3
      vertex 62.3 0 3
      vertex 52.3 6.15 3
    endloop
  endfacet
  facet normal 0 0 1
    outer loop
      vertex 37.5317 4.43647 3
      vertex 51.5275 6.27236 3
      vertex 50.8305 6.62746 3
    endloop
  endfacet
  facet normal 0 0 1
    outer loop
      vertex 49.9224 9.42254 3
      vertex 38.15 5.65 3
      vertex 49.8 8.65 3
    endloop
  endfacet
  facet normal 0 0 1
    outer loop
      vertex 49.8 8.65 3
      vertex 38.15 5.65 3
      vertex 49.9224 7.87746 3
    endloop
  endfacet
  facet normal 0 0 1
    outer loop
      vertex 38.15 5.65 3
      vertex 50.2775 7.18054 3
      vertex 49.9224 7.87746 3
    endloop
  endfacet
  facet normal 0 0 1
    outer loop
      vertex 38.0766 5.18647 3
      vertex 50.2775 7.18054 3
      vertex 38.15 5.65 3
    endloop
  endfacet
  facet normal 0 0 1
    outer loop
      vertex 50.2775 7.18054 3
      vertex 38.0766 5.18647 3
      vertex 50.8305 6.62746 3
    endloop
  endfacet
  facet normal 0 0 1
    outer loop
      vertex 37.8635 4.76832 3
      vertex 50.8305 6.62746 3
      vertex 38.0766 5.18647 3
    endloop
  endfacet
  facet normal 0 0 1
    outer loop
      vertex 37.5317 4.43647 3
      vertex 50.8305 6.62746 3
      vertex 37.8635 4.76832 3
    endloop
  endfacet
  facet normal 0 0 1
    outer loop
      vertex 51.5275 6.27236 3
      vertex 37.5317 4.43647 3
      vertex 62.3 0 3
    endloop
  endfacet
  facet normal -0 0 1
    outer loop
      vertex 37.1135 4.22341 3
      vertex 62.3 0 3
      vertex 37.5317 4.43647 3
    endloop
  endfacet
  facet normal -0 0 1
    outer loop
      vertex 36.65 4.15 3
      vertex 62.3 0 3
      vertex 37.1135 4.22341 3
    endloop
  endfacet
  facet normal 0 0 1
    outer loop
      vertex 0 0 3
      vertex 36.65 4.15 3
      vertex 36.1865 4.22341 3
    endloop
  endfacet
  facet normal -0 0 1
    outer loop
      vertex 27.0279 13.0598 3
      vertex 35.4365 6.53168 3
      vertex 29.2402 15.2721 3
    endloop
  endfacet
  facet normal 0 0 1
    outer loop
      vertex 35.4365 6.53168 3
      vertex 27.0279 13.0598 3
      vertex 35.2234 6.11353 3
    endloop
  endfacet
  facet normal 0 0 1
    outer loop
      vertex 35.2234 6.11353 3
      vertex 27.0279 13.0598 3
      vertex 35.15 5.65 3
    endloop
  endfacet
  facet normal -0 0 1
    outer loop
      vertex 24.2402 11.6394 3
      vertex 35.15 5.65 3
      vertex 27.0279 13.0598 3
    endloop
  endfacet
  facet normal 0 0 1
    outer loop
      vertex 35.15 5.65 3
      vertex 24.2402 11.6394 3
      vertex 35.2234 5.18647 3
    endloop
  endfacet
  facet normal 0 0 1
    outer loop
      vertex 35.2234 5.18647 3
      vertex 24.2402 11.6394 3
      vertex 35.4365 4.76832 3
    endloop
  endfacet
  facet normal -0 0 1
    outer loop
      vertex 21.15 11.15 3
      vertex 35.4365 4.76832 3
      vertex 24.2402 11.6394 3
    endloop
  endfacet
  facet normal 0 0 1
    outer loop
      vertex 6.86353 4.76832 3
      vertex 35.4365 4.76832 3
      vertex 21.15 11.15 3
    endloop
  endfacet
  facet normal 0 0 1
    outer loop
      vertex 35.4365 4.76832 3
      vertex 6.86353 4.76832 3
      vertex 35.7683 4.43647 3
    endloop
  endfacet
  facet normal 0 0 1
    outer loop
      vertex 6.86353 4.76832 3
      vertex 21.15 11.15 3
      vertex 18.0598 11.6394 3
    endloop
  endfacet
  facet normal -0 0 1
    outer loop
      vertex 6.53168 35.4365 3
      vertex 13.0598 27.0279 3
      vertex 6.86353 35.7683 3
    endloop
  endfacet
  facet normal 0 0 1
    outer loop
      vertex 11.15 21.15 3
      vertex 7.15 5.65 3
      vertex 11.6394 18.0598 3
    endloop
  endfacet
  facet normal 0 0 1
    outer loop
      vertex 7.15 5.65 3
      vertex 13.0598 15.2721 3
      vertex 11.6394 18.0598 3
    endloop
  endfacet
  facet normal 0 0 1
    outer loop
      vertex 7.15 5.65 3
      vertex 15.2721 13.0598 3
      vertex 13.0598 15.2721 3
    endloop
  endfacet
  facet normal 0 0 1
    outer loop
      vertex 7.15 5.65 3
      vertex 18.0598 11.6394 3
      vertex 15.2721 13.0598 3
    endloop
  endfacet
  facet normal 0 0 1
    outer loop
      vertex 7.07658 5.18647 3
      vertex 18.0598 11.6394 3
      vertex 7.15 5.65 3
    endloop
  endfacet
  facet normal 0 0 1
    outer loop
      vertex 6.86353 4.76832 3
      vertex 18.0598 11.6394 3
      vertex 7.07658 5.18647 3
    endloop
  endfacet
  facet normal 0 0 1
    outer loop
      vertex 6.53168 4.43647 3
      vertex 35.7683 4.43647 3
      vertex 6.86353 4.76832 3
    endloop
  endfacet
  facet normal 0 0 1
    outer loop
      vertex 35.7683 4.43647 3
      vertex 6.53168 4.43647 3
      vertex 36.1865 4.22341 3
    endloop
  endfacet
  facet normal 0 0 1
    outer loop
      vertex 0 0 3
      vertex 36.1865 4.22341 3
      vertex 6.53168 4.43647 3
    endloop
  endfacet
  facet normal 0 0 1
    outer loop
      vertex 0 0 3
      vertex 6.53168 4.43647 3
      vertex 6.11353 4.22341 3
    endloop
  endfacet
  facet normal 0 0 1
    outer loop
      vertex 0 0 3
      vertex 6.11353 4.22341 3
      vertex 5.65 4.15 3
    endloop
  endfacet
  facet normal 0 0 1
    outer loop
      vertex 36.65 4.15 3
      vertex 0 0 3
      vertex 62.3 0 3
    endloop
  endfacet
  facet normal 0 0 1
    outer loop
      vertex 5.18647 4.22341 3
      vertex 0 0 3
      vertex 5.65 4.15 3
    endloop
  endfacet
  facet normal 0 0 1
    outer loop
      vertex 4.76832 4.43647 3
      vertex 0 0 3
      vertex 5.18647 4.22341 3
    endloop
  endfacet
  facet normal 0 0 1
    outer loop
      vertex 4.43647 4.76832 3
      vertex 0 0 3
      vertex 4.76832 4.43647 3
    endloop
  endfacet
  facet normal 0 0 1
    outer loop
      vertex 4.22341 5.18647 3
      vertex 0 0 3
      vertex 4.43647 4.76832 3
    endloop
  endfacet
  facet normal 0 0 1
    outer loop
      vertex 4.15 5.65 3
      vertex 0 0 3
      vertex 4.22341 5.18647 3
    endloop
  endfacet
  facet normal 0 0 1
    outer loop
      vertex 4.22341 6.11353 3
      vertex 0 0 3
      vertex 4.15 5.65 3
    endloop
  endfacet
  facet normal 0 0 -1
    outer loop
      vertex 6.11353 7.07658 0
      vertex 13.0598 15.2721 0
      vertex 6.53168 6.86353 0
    endloop
  endfacet
  facet normal 0 0 -1
    outer loop
      vertex 11.15 21.15 0
      vertex 7.07658 36.1865 0
      vertex 7.15 36.65 0
    endloop
  endfacet
  facet normal 0 0 -1
    outer loop
      vertex 5.65 7.15 0
      vertex 13.0598 15.2721 0
      vertex 6.11353 7.07658 0
    endloop
  endfacet
  facet normal 0 0 -1
    outer loop
      vertex 11.15 21.15 0
      vertex 6.86353 35.7683 0
      vertex 7.07658 36.1865 0
    endloop
  endfacet
  facet normal -0 0 -1
    outer loop
      vertex 13.0598 15.2721 0
      vertex 5.65 7.15 0
      vertex 11.6394 18.0598 0
    endloop
  endfacet
  facet normal 0 0 -1
    outer loop
      vertex 11.15 21.15 0
      vertex 6.53168 35.4365 0
      vertex 6.86353 35.7683 0
    endloop
  endfacet
  facet normal 0 0 -1
    outer loop
      vertex 5.18647 7.07658 0
      vertex 11.6394 18.0598 0
      vertex 5.65 7.15 0
    endloop
  endfacet
  facet normal 0 0 -1
    outer loop
      vertex 11.15 21.15 0
      vertex 6.11353 35.2234 0
      vertex 6.53168 35.4365 0
    endloop
  endfacet
  facet normal -0 0 -1
    outer loop
      vertex 11.6394 18.0598 0
      vertex 5.18647 7.07658 0
      vertex 11.15 21.15 0
    endloop
  endfacet
  facet normal 0 0 -1
    outer loop
      vertex 11.15 21.15 0
      vertex 5.65 35.15 0
      vertex 6.11353 35.2234 0
    endloop
  endfacet
  facet normal 0 0 -1
    outer loop
      vertex 4.76832 6.86353 0
      vertex 11.15 21.15 0
      vertex 5.18647 7.07658 0
    endloop
  endfacet
  facet normal 0 0 -1
    outer loop
      vertex 11.15 21.15 0
      vertex 5.18647 35.2234 0
      vertex 5.65 35.15 0
    endloop
  endfacet
  facet normal 0 0 -1
    outer loop
      vertex 4.76832 35.4365 0
      vertex 11.15 21.15 0
      vertex 4.76832 6.86353 0
    endloop
  endfacet
  facet normal 0 0 -1
    outer loop
      vertex 11.15 21.15 0
      vertex 4.76832 35.4365 0
      vertex 5.18647 35.2234 0
    endloop
  endfacet
  facet normal 0 0 -1
    outer loop
      vertex 4.43647 6.53168 0
      vertex 4.76832 35.4365 0
      vertex 4.76832 6.86353 0
    endloop
  endfacet
  facet normal 0 0 -1
    outer loop
      vertex 4.43647 6.53168 0
      vertex 4.43647 35.7683 0
      vertex 4.76832 35.4365 0
    endloop
  endfacet
  facet normal 0 0 -1
    outer loop
      vertex 4.22341 6.11353 0
      vertex 4.43647 35.7683 0
      vertex 4.43647 6.53168 0
    endloop
  endfacet
  facet normal 0 0 -1
    outer loop
      vertex 4.22341 6.11353 0
      vertex 4.22341 36.1865 0
      vertex 4.43647 35.7683 0
    endloop
  endfacet
  facet normal 0 0 -1
    outer loop
      vertex 0 0 0
      vertex 4.22341 6.11353 0
      vertex 4.15 5.65 0
    endloop
  endfacet
  facet normal -0 0 -1
    outer loop
      vertex 4.22341 6.11353 0
      vertex 0 0 0
      vertex 4.22341 36.1865 0
    endloop
  endfacet
  facet normal 0 0 -1
    outer loop
      vertex 30.6606 18.0598 0
      vertex 50.2775 10.1195 0
      vertex 37.1135 7.07658 0
    endloop
  endfacet
  facet normal 0 0 -1
    outer loop
      vertex 50.2775 32.1805 0
      vertex 38.0766 36.1865 0
      vertex 38.15 36.65 0
    endloop
  endfacet
  facet normal 0 0 -1
    outer loop
      vertex 50.8305 10.6725 0
      vertex 31.15 21.15 0
      vertex 50.8305 31.6275 0
    endloop
  endfacet
  facet normal 0 0 -1
    outer loop
      vertex 50.2775 32.1805 0
      vertex 37.8635 35.7683 0
      vertex 38.0766 36.1865 0
    endloop
  endfacet
  facet normal -0 0 -1
    outer loop
      vertex 50.8305 31.6275 0
      vertex 31.15 21.15 0
      vertex 50.2775 32.1805 0
    endloop
  endfacet
  facet normal 0 0 -1
    outer loop
      vertex 50.2775 32.1805 0
      vertex 37.5317 35.4365 0
      vertex 37.8635 35.7683 0
    endloop
  endfacet
  facet normal 0 -0 -1
    outer loop
      vertex 31.15 21.15 0
      vertex 50.2775 10.1195 0
      vertex 30.6606 18.0598 0
    endloop
  endfacet
  facet normal 0 0 -1
    outer loop
      vertex 30.6606 24.2402 0
      vertex 50.2775 32.1805 0
      vertex 31.15 21.15 0
    endloop
  endfacet
  facet normal 0 0 -1
    outer loop
      vertex 30.6606 18.0598 0
      vertex 37.1135 7.07658 0
      vertex 36.65 7.15 0
    endloop
  endfacet
  facet normal 0 0 -1
    outer loop
      vertex 50.2775 32.1805 0
      vertex 37.1135 35.2234 0
      vertex 37.5317 35.4365 0
    endloop
  endfacet
  facet normal 0 0 -1
    outer loop
      vertex 29.2402 15.2721 0
      vertex 36.65 7.15 0
      vertex 36.1865 7.07658 0
    endloop
  endfacet
  facet normal -0 0 -1
    outer loop
      vertex 50.2775 32.1805 0
      vertex 30.6606 24.2402 0
      vertex 37.1135 35.2234 0
    endloop
  endfacet
  facet normal 0 0 -1
    outer loop
      vertex 29.2402 15.2721 0
      vertex 36.1865 7.07658 0
      vertex 35.7683 6.86353 0
    endloop
  endfacet
  facet normal 0 0 -1
    outer loop
      vertex 37.1135 35.2234 0
      vertex 30.6606 24.2402 0
      vertex 36.65 35.15 0
    endloop
  endfacet
  facet normal 0 0 -1
    outer loop
      vertex 29.2402 15.2721 0
      vertex 35.7683 6.86353 0
      vertex 35.4365 6.53168 0
    endloop
  endfacet
  facet normal 0 0 -1
    outer loop
      vertex 29.2402 27.0279 0
      vertex 36.65 35.15 0
      vertex 30.6606 24.2402 0
    endloop
  endfacet
  facet normal 0 0 -1
    outer loop
      vertex 27.0279 13.0598 0
      vertex 35.4365 6.53168 0
      vertex 35.2234 6.11353 0
    endloop
  endfacet
  facet normal -0 0 -1
    outer loop
      vertex 36.65 35.15 0
      vertex 29.2402 27.0279 0
      vertex 36.1865 35.2234 0
    endloop
  endfacet
  facet normal 0 0 -1
    outer loop
      vertex 27.0279 13.0598 0
      vertex 35.2234 6.11353 0
      vertex 35.15 5.65 0
    endloop
  endfacet
  facet normal -0 0 -1
    outer loop
      vertex 36.1865 35.2234 0
      vertex 29.2402 27.0279 0
      vertex 35.7683 35.4365 0
    endloop
  endfacet
  facet normal 0 0 -1
    outer loop
      vertex 54.6776 32.8775 0
      vertex 62.3 42.3 0
      vertex 54.6776 9.42254 0
    endloop
  endfacet
  facet normal 0 0 -1
    outer loop
      vertex 62.3 42.3 0
      vertex 54.6776 32.8775 0
      vertex 54.8 33.65 0
    endloop
  endfacet
  facet normal 0 0 -1
    outer loop
      vertex 54.3225 10.1195 0
      vertex 54.6776 32.8775 0
      vertex 54.6776 9.42254 0
    endloop
  endfacet
  facet normal 0 0 -1
    outer loop
      vertex 54.3225 10.1195 0
      vertex 54.3225 32.1805 0
      vertex 54.6776 32.8775 0
    endloop
  endfacet
  facet normal 0 0 -1
    outer loop
      vertex 53.7695 10.6725 0
      vertex 54.3225 32.1805 0
      vertex 54.3225 10.1195 0
    endloop
  endfacet
  facet normal 0 0 -1
    outer loop
      vertex 53.7695 10.6725 0
      vertex 53.7695 31.6275 0
      vertex 54.3225 32.1805 0
    endloop
  endfacet
  facet normal 0 0 -1
    outer loop
      vertex 53.0725 11.0276 0
      vertex 53.7695 31.6275 0
      vertex 53.7695 10.6725 0
    endloop
  endfacet
  facet normal 0 0 -1
    outer loop
      vertex 53.0725 11.0276 0
      vertex 53.0725 31.2724 0
      vertex 53.7695 31.6275 0
    endloop
  endfacet
  facet normal 0 0 -1
    outer loop
      vertex 52.3 11.15 0
      vertex 53.0725 31.2724 0
      vertex 53.0725 11.0276 0
    endloop
  endfacet
  facet normal 0 0 -1
    outer loop
      vertex 52.3 11.15 0
      vertex 52.3 31.15 0
      vertex 53.0725 31.2724 0
    endloop
  endfacet
  facet normal 0 0 -1
    outer loop
      vertex 51.5275 11.0276 0
      vertex 52.3 31.15 0
      vertex 52.3 11.15 0
    endloop
  endfacet
  facet normal 0 0 -1
    outer loop
      vertex 51.5275 11.0276 0
      vertex 51.5275 31.2724 0
      vertex 52.3 31.15 0
    endloop
  endfacet
  facet normal 0 0 -1
    outer loop
      vertex 50.8305 10.6725 0
      vertex 51.5275 31.2724 0
      vertex 51.5275 11.0276 0
    endloop
  endfacet
  facet normal 0 0 -1
    outer loop
      vertex 50.8305 10.6725 0
      vertex 50.8305 31.6275 0
      vertex 51.5275 31.2724 0
    endloop
  endfacet
  facet normal -0 0 -1
    outer loop
      vertex 49.9224 9.42254 0
      vertex 37.5317 6.86353 0
      vertex 50.2775 10.1195 0
    endloop
  endfacet
  facet normal 0 0 -1
    outer loop
      vertex 37.1135 7.07658 0
      vertex 50.2775 10.1195 0
      vertex 37.5317 6.86353 0
    endloop
  endfacet
  facet normal 0 0 -1
    outer loop
      vertex 37.8635 6.53168 0
      vertex 49.8 8.65 0
      vertex 38.0766 6.11353 0
    endloop
  endfacet
  facet normal -0 0 -1
    outer loop
      vertex 49.8 8.65 0
      vertex 37.8635 6.53168 0
      vertex 49.9224 9.42254 0
    endloop
  endfacet
  facet normal -0 0 -1
    outer loop
      vertex 49.9224 7.87746 0
      vertex 38.0766 6.11353 0
      vertex 49.8 8.65 0
    endloop
  endfacet
  facet normal 0 0 -1
    outer loop
      vertex 37.5317 6.86353 0
      vertex 49.9224 9.42254 0
      vertex 37.8635 6.53168 0
    endloop
  endfacet
  facet normal 0 0 -1
    outer loop
      vertex 54.6776 9.42254 0
      vertex 62.3 0 0
      vertex 54.8 8.65 0
    endloop
  endfacet
  facet normal 0 0 -1
    outer loop
      vertex 62.3 0 0
      vertex 54.6776 7.87746 0
      vertex 54.8 8.65 0
    endloop
  endfacet
  facet normal 0 0 -1
    outer loop
      vertex 62.3 0 0
      vertex 54.3225 7.18054 0
      vertex 54.6776 7.87746 0
    endloop
  endfacet
  facet normal 0 0 -1
    outer loop
      vertex 62.3 0 0
      vertex 53.7695 6.62746 0
      vertex 54.3225 7.18054 0
    endloop
  endfacet
  facet normal 0 0 -1
    outer loop
      vertex 62.3 0 0
      vertex 53.0725 6.27236 0
      vertex 53.7695 6.62746 0
    endloop
  endfacet
  facet normal 0 0 -1
    outer loop
      vertex 62.3 0 0
      vertex 52.3 6.15 0
      vertex 53.0725 6.27236 0
    endloop
  endfacet
  facet normal 0 0 -1
    outer loop
      vertex 62.3 0 0
      vertex 51.5275 6.27236 0
      vertex 52.3 6.15 0
    endloop
  endfacet
  facet normal 0 0 -1
    outer loop
      vertex 37.5317 4.43647 0
      vertex 51.5275 6.27236 0
      vertex 62.3 0 0
    endloop
  endfacet
  facet normal 0 0 -1
    outer loop
      vertex 50.2775 32.1805 0
      vertex 38.15 36.65 0
      vertex 49.9224 32.8775 0
    endloop
  endfacet
  facet normal 0 0 -1
    outer loop
      vertex 38.0766 6.11353 0
      vertex 49.9224 7.87746 0
      vertex 38.15 5.65 0
    endloop
  endfacet
  facet normal -0 0 -1
    outer loop
      vertex 50.2775 7.18054 0
      vertex 38.15 5.65 0
      vertex 49.9224 7.87746 0
    endloop
  endfacet
  facet normal 0 0 -1
    outer loop
      vertex 38.0766 5.18647 0
      vertex 50.2775 7.18054 0
      vertex 50.8305 6.62746 0
    endloop
  endfacet
  facet normal -0 0 -1
    outer loop
      vertex 51.5275 6.27236 0
      vertex 37.5317 4.43647 0
      vertex 50.8305 6.62746 0
    endloop
  endfacet
  facet normal 0 0 -1
    outer loop
      vertex 50.2775 7.18054 0
      vertex 38.0766 5.18647 0
      vertex 38.15 5.65 0
    endloop
  endfacet
  facet normal 0 0 -1
    outer loop
      vertex 50.8305 6.62746 0
      vertex 37.8635 4.76832 0
      vertex 38.0766 5.18647 0
    endloop
  endfacet
  facet normal 0 0 -1
    outer loop
      vertex 50.8305 6.62746 0
      vertex 37.5317 4.43647 0
      vertex 37.8635 4.76832 0
    endloop
  endfacet
  facet normal 0 0 -1
    outer loop
      vertex 62.3 0 0
      vertex 37.1135 4.22341 0
      vertex 37.5317 4.43647 0
    endloop
  endfacet
  facet normal 0 0 -1
    outer loop
      vertex 62.3 0 0
      vertex 36.65 4.15 0
      vertex 37.1135 4.22341 0
    endloop
  endfacet
  facet normal 0 0 -1
    outer loop
      vertex 0 0 0
      vertex 36.65 4.15 0
      vertex 62.3 0 0
    endloop
  endfacet
  facet normal -0 0 -1
    outer loop
      vertex 35.7683 35.4365 0
      vertex 29.2402 27.0279 0
      vertex 35.4365 35.7683 0
    endloop
  endfacet
  facet normal 0 0 -1
    outer loop
      vertex 24.2402 11.6394 0
      vertex 35.15 5.65 0
      vertex 35.2234 5.18647 0
    endloop
  endfacet
  facet normal 0 0 -1
    outer loop
      vertex 50.2775 10.1195 0
      vertex 31.15 21.15 0
      vertex 50.8305 10.6725 0
    endloop
  endfacet
  facet normal 0 0 -1
    outer loop
      vertex 36.65 7.15 0
      vertex 29.2402 15.2721 0
      vertex 30.6606 18.0598 0
    endloop
  endfacet
  facet normal 0 0 -1
    outer loop
      vertex 24.2402 11.6394 0
      vertex 35.2234 5.18647 0
      vertex 35.4365 4.76832 0
    endloop
  endfacet
  facet normal 0 0 -1
    outer loop
      vertex 35.4365 6.53168 0
      vertex 27.0279 13.0598 0
      vertex 29.2402 15.2721 0
    endloop
  endfacet
  facet normal 0 0 -1
    outer loop
      vertex 6.86353 4.76832 0
      vertex 35.4365 4.76832 0
      vertex 35.7683 4.43647 0
    endloop
  endfacet
  facet normal 0 0 -1
    outer loop
      vertex 35.15 5.65 0
      vertex 24.2402 11.6394 0
      vertex 27.0279 13.0598 0
    endloop
  endfacet
  facet normal 0 0 -1
    outer loop
      vertex 35.4365 4.76832 0
      vertex 21.15 11.15 0
      vertex 24.2402 11.6394 0
    endloop
  endfacet
  facet normal 0 0 -1
    outer loop
      vertex 6.53168 4.43647 0
      vertex 35.7683 4.43647 0
      vertex 36.1865 4.22341 0
    endloop
  endfacet
  facet normal 0 0 -1
    outer loop
      vertex 35.4365 4.76832 0
      vertex 6.86353 4.76832 0
      vertex 21.15 11.15 0
    endloop
  endfacet
  facet normal -0 0 -1
    outer loop
      vertex 15.2721 13.0598 0
      vertex 6.86353 6.53168 0
      vertex 13.0598 15.2721 0
    endloop
  endfacet
  facet normal 0 0 -1
    outer loop
      vertex 6.86353 6.53168 0
      vertex 15.2721 13.0598 0
      vertex 7.07658 6.11353 0
    endloop
  endfacet
  facet normal 0 0 -1
    outer loop
      vertex 7.07658 6.11353 0
      vertex 15.2721 13.0598 0
      vertex 7.15 5.65 0
    endloop
  endfacet
  facet normal -0 0 -1
    outer loop
      vertex 18.0598 11.6394 0
      vertex 7.15 5.65 0
      vertex 15.2721 13.0598 0
    endloop
  endfacet
  facet normal -0 0 -1
    outer loop
      vertex 21.15 11.15 0
      vertex 6.86353 4.76832 0
      vertex 18.0598 11.6394 0
    endloop
  endfacet
  facet normal -0 0 -1
    outer loop
      vertex 36.65 4.15 0
      vertex 0 0 0
      vertex 36.1865 4.22341 0
    endloop
  endfacet
  facet normal 0 0 -1
    outer loop
      vertex 18.0598 11.6394 0
      vertex 7.07658 5.18647 0
      vertex 7.15 5.65 0
    endloop
  endfacet
  facet normal 0 0 -1
    outer loop
      vertex 18.0598 11.6394 0
      vertex 6.86353 4.76832 0
      vertex 7.07658 5.18647 0
    endloop
  endfacet
  facet normal 0 0 -1
    outer loop
      vertex 35.7683 4.43647 0
      vertex 6.53168 4.43647 0
      vertex 6.86353 4.76832 0
    endloop
  endfacet
  facet normal -0 0 -1
    outer loop
      vertex 36.1865 4.22341 0
      vertex 0 0 0
      vertex 6.53168 4.43647 0
    endloop
  endfacet
  facet normal 0 0 -1
    outer loop
      vertex 6.53168 4.43647 0
      vertex 0 0 0
      vertex 6.11353 4.22341 0
    endloop
  endfacet
  facet normal 0 0 -1
    outer loop
      vertex 0 42.3 0
      vertex 4.22341 36.1865 0
      vertex 0 0 0
    endloop
  endfacet
  facet normal -0 0 -1
    outer loop
      vertex 4.22341 5.18647 0
      vertex 0 0 0
      vertex 4.15 5.65 0
    endloop
  endfacet
  facet normal -0 0 -1
    outer loop
      vertex 4.43647 4.76832 0
      vertex 0 0 0
      vertex 4.22341 5.18647 0
    endloop
  endfacet
  facet normal -0 0 -1
    outer loop
      vertex 4.76832 4.43647 0
      vertex 0 0 0
      vertex 4.43647 4.76832 0
    endloop
  endfacet
  facet normal -0 0 -1
    outer loop
      vertex 5.18647 4.22341 0
      vertex 0 0 0
      vertex 4.76832 4.43647 0
    endloop
  endfacet
  facet normal -0 0 -1
    outer loop
      vertex 5.65 4.15 0
      vertex 0 0 0
      vertex 5.18647 4.22341 0
    endloop
  endfacet
  facet normal 0 0 -1
    outer loop
      vertex 6.11353 4.22341 0
      vertex 0 0 0
      vertex 5.65 4.15 0
    endloop
  endfacet
  facet normal 0 0 -1
    outer loop
      vertex 62.3 0 0
      vertex 54.6776 9.42254 0
      vertex 62.3 42.3 0
    endloop
  endfacet
  facet normal 0 0 -1
    outer loop
      vertex 54.6776 34.4225 0
      vertex 62.3 42.3 0
      vertex 54.8 33.65 0
    endloop
  endfacet
  facet normal 0 0 -1
    outer loop
      vertex 54.3225 35.1195 0
      vertex 62.3 42.3 0
      vertex 54.6776 34.4225 0
    endloop
  endfacet
  facet normal 0 0 -1
    outer loop
      vertex 53.7695 35.6725 0
      vertex 62.3 42.3 0
      vertex 54.3225 35.1195 0
    endloop
  endfacet
  facet normal 0 0 -1
    outer loop
      vertex 53.0725 36.0276 0
      vertex 62.3 42.3 0
      vertex 53.7695 35.6725 0
    endloop
  endfacet
  facet normal 0 0 -1
    outer loop
      vertex 52.3 36.15 0
      vertex 62.3 42.3 0
      vertex 53.0725 36.0276 0
    endloop
  endfacet
  facet normal 0 0 -1
    outer loop
      vertex 51.5275 36.0276 0
      vertex 62.3 42.3 0
      vertex 52.3 36.15 0
    endloop
  endfacet
  facet normal 0 0 -1
    outer loop
      vertex 37.5317 37.8635 0
      vertex 51.5275 36.0276 0
      vertex 50.8305 35.6725 0
    endloop
  endfacet
  facet normal 0 0 -1
    outer loop
      vertex 49.9224 32.8775 0
      vertex 38.15 36.65 0
      vertex 49.8 33.65 0
    endloop
  endfacet
  facet normal 0 0 -1
    outer loop
      vertex 49.8 33.65 0
      vertex 38.15 36.65 0
      vertex 49.9224 34.4225 0
    endloop
  endfacet
  facet normal 0 0 -1
    outer loop
      vertex 38.15 36.65 0
      vertex 50.2775 35.1195 0
      vertex 49.9224 34.4225 0
    endloop
  endfacet
  facet normal 0 0 -1
    outer loop
      vertex 38.0766 37.1135 0
      vertex 50.2775 35.1195 0
      vertex 38.15 36.65 0
    endloop
  endfacet
  facet normal 0 0 -1
    outer loop
      vertex 50.2775 35.1195 0
      vertex 38.0766 37.1135 0
      vertex 50.8305 35.6725 0
    endloop
  endfacet
  facet normal 0 0 -1
    outer loop
      vertex 37.8635 37.5317 0
      vertex 50.8305 35.6725 0
      vertex 38.0766 37.1135 0
    endloop
  endfacet
  facet normal 0 0 -1
    outer loop
      vertex 37.5317 37.8635 0
      vertex 50.8305 35.6725 0
      vertex 37.8635 37.5317 0
    endloop
  endfacet
  facet normal 0 0 -1
    outer loop
      vertex 51.5275 36.0276 0
      vertex 37.5317 37.8635 0
      vertex 62.3 42.3 0
    endloop
  endfacet
  facet normal 0 0 -1
    outer loop
      vertex 37.1135 38.0766 0
      vertex 62.3 42.3 0
      vertex 37.5317 37.8635 0
    endloop
  endfacet
  facet normal 0 0 -1
    outer loop
      vertex 36.65 38.15 0
      vertex 62.3 42.3 0
      vertex 37.1135 38.0766 0
    endloop
  endfacet
  facet normal 0 0 -1
    outer loop
      vertex 0 42.3 0
      vertex 36.65 38.15 0
      vertex 36.1865 38.0766 0
    endloop
  endfacet
  facet normal 0 0 -1
    outer loop
      vertex 27.0279 29.2402 0
      vertex 35.4365 35.7683 0
      vertex 29.2402 27.0279 0
    endloop
  endfacet
  facet normal -0 0 -1
    outer loop
      vertex 35.4365 35.7683 0
      vertex 27.0279 29.2402 0
      vertex 35.2234 36.1865 0
    endloop
  endfacet
  facet normal -0 0 -1
    outer loop
      vertex 35.2234 36.1865 0
      vertex 27.0279 29.2402 0
      vertex 35.15 36.65 0
    endloop
  endfacet
  facet normal 0 0 -1
    outer loop
      vertex 24.2402 30.6606 0
      vertex 35.15 36.65 0
      vertex 27.0279 29.2402 0
    endloop
  endfacet
  facet normal -0 0 -1
    outer loop
      vertex 35.15 36.65 0
      vertex 24.2402 30.6606 0
      vertex 35.2234 37.1135 0
    endloop
  endfacet
  facet normal -0 0 -1
    outer loop
      vertex 35.2234 37.1135 0
      vertex 24.2402 30.6606 0
      vertex 35.4365 37.5317 0
    endloop
  endfacet
  facet normal 0 0 -1
    outer loop
      vertex 21.15 31.15 0
      vertex 35.4365 37.5317 0
      vertex 24.2402 30.6606 0
    endloop
  endfacet
  facet normal 0 0 -1
    outer loop
      vertex 6.86353 37.5317 0
      vertex 35.4365 37.5317 0
      vertex 21.15 31.15 0
    endloop
  endfacet
  facet normal 0 0 -1
    outer loop
      vertex 35.4365 37.5317 0
      vertex 6.86353 37.5317 0
      vertex 35.7683 37.8635 0
    endloop
  endfacet
  facet normal 0 0 -1
    outer loop
      vertex 6.86353 37.5317 0
      vertex 21.15 31.15 0
      vertex 18.0598 30.6606 0
    endloop
  endfacet
  facet normal 0 0 -1
    outer loop
      vertex 6.53168 6.86353 0
      vertex 13.0598 15.2721 0
      vertex 6.86353 6.53168 0
    endloop
  endfacet
  facet normal 0 0 -1
    outer loop
      vertex 11.15 21.15 0
      vertex 7.15 36.65 0
      vertex 11.6394 24.2402 0
    endloop
  endfacet
  facet normal 0 0 -1
    outer loop
      vertex 7.15 36.65 0
      vertex 13.0598 27.0279 0
      vertex 11.6394 24.2402 0
    endloop
  endfacet
  facet normal 0 0 -1
    outer loop
      vertex 7.15 36.65 0
      vertex 15.2721 29.2402 0
      vertex 13.0598 27.0279 0
    endloop
  endfacet
  facet normal 0 0 -1
    outer loop
      vertex 7.15 36.65 0
      vertex 18.0598 30.6606 0
      vertex 15.2721 29.2402 0
    endloop
  endfacet
  facet normal 0 0 -1
    outer loop
      vertex 7.07658 37.1135 0
      vertex 18.0598 30.6606 0
      vertex 7.15 36.65 0
    endloop
  endfacet
  facet normal 0 0 -1
    outer loop
      vertex 6.86353 37.5317 0
      vertex 18.0598 30.6606 0
      vertex 7.07658 37.1135 0
    endloop
  endfacet
  facet normal 0 0 -1
    outer loop
      vertex 6.53168 37.8635 0
      vertex 35.7683 37.8635 0
      vertex 6.86353 37.5317 0
    endloop
  endfacet
  facet normal 0 0 -1
    outer loop
      vertex 35.7683 37.8635 0
      vertex 6.53168 37.8635 0
      vertex 36.1865 38.0766 0
    endloop
  endfacet
  facet normal 0 0 -1
    outer loop
      vertex 0 42.3 0
      vertex 36.1865 38.0766 0
      vertex 6.53168 37.8635 0
    endloop
  endfacet
  facet normal 0 0 -1
    outer loop
      vertex 0 42.3 0
      vertex 6.53168 37.8635 0
      vertex 6.11353 38.0766 0
    endloop
  endfacet
  facet normal 0 0 -1
    outer loop
      vertex 0 42.3 0
      vertex 6.11353 38.0766 0
      vertex 5.65 38.15 0
    endloop
  endfacet
  facet normal 0 0 -1
    outer loop
      vertex 36.65 38.15 0
      vertex 0 42.3 0
      vertex 62.3 42.3 0
    endloop
  endfacet
  facet normal 0 0 -1
    outer loop
      vertex 5.18647 38.0766 0
      vertex 0 42.3 0
      vertex 5.65 38.15 0
    endloop
  endfacet
  facet normal 0 0 -1
    outer loop
      vertex 4.76832 37.8635 0
      vertex 0 42.3 0
      vertex 5.18647 38.0766 0
    endloop
  endfacet
  facet normal 0 0 -1
    outer loop
      vertex 4.43647 37.5317 0
      vertex 0 42.3 0
      vertex 4.76832 37.8635 0
    endloop
  endfacet
  facet normal 0 0 -1
    outer loop
      vertex 4.22341 37.1135 0
      vertex 0 42.3 0
      vertex 4.43647 37.5317 0
    endloop
  endfacet
  facet normal 0 0 -1
    outer loop
      vertex 4.15 36.65 0
      vertex 0 42.3 0
      vertex 4.22341 37.1135 0
    endloop
  endfacet
  facet normal 0 0 -1
    outer loop
      vertex 4.22341 36.1865 0
      vertex 0 42.3 0
      vertex 4.15 36.65 0
    endloop
  endfacet
  facet normal -1 0 0
    outer loop
      vertex 0 0 0
      vertex 0 42.3 3
      vertex 0 42.3 0
    endloop
  endfacet
  facet normal -1 -0 0
    outer loop
      vertex 0 42.3 3
      vertex 0 0 0
      vertex 0 0 3
    endloop
  endfacet
  facet normal 0 1 -0
    outer loop
      vertex 62.3 42.3 0
      vertex 0 42.3 3
      vertex 62.3 42.3 3
    endloop
  endfacet
  facet normal 0 1 0
    outer loop
      vertex 0 42.3 3
      vertex 62.3 42.3 0
      vertex 0 42.3 0
    endloop
  endfacet
  facet normal 0 -1 0
    outer loop
      vertex 0 0 0
      vertex 62.3 0 3
      vertex 0 0 3
    endloop
  endfacet
  facet normal 0 -1 -0
    outer loop
      vertex 62.3 0 3
      vertex 0 0 0
      vertex 62.3 0 0
    endloop
  endfacet
  facet normal 0.98769 0.156422 0
    outer loop
      vertex 4.22341 5.18647 3
      vertex 4.15 5.65 0
      vertex 4.15 5.65 3
    endloop
  endfacet
  facet normal 0.98769 0.156422 0
    outer loop
      vertex 4.15 5.65 0
      vertex 4.22341 5.18647 3
      vertex 4.22341 5.18647 0
    endloop
  endfacet
  facet normal -0.987687 -0.156443 0
    outer loop
      vertex 7.15 5.65 0
      vertex 7.07658 6.11353 3
      vertex 7.07658 6.11353 0
    endloop
  endfacet
  facet normal -0.987687 -0.156443 0
    outer loop
      vertex 7.07658 6.11353 3
      vertex 7.15 5.65 0
      vertex 7.15 5.65 3
    endloop
  endfacet
  facet normal -0.891013 -0.453977 0
    outer loop
      vertex 7.07658 6.11353 0
      vertex 6.86353 6.53168 3
      vertex 6.86353 6.53168 0
    endloop
  endfacet
  facet normal -0.891013 -0.453977 0
    outer loop
      vertex 6.86353 6.53168 3
      vertex 7.07658 6.11353 0
      vertex 7.07658 6.11353 3
    endloop
  endfacet
  facet normal -0.453994 0.891005 0
    outer loop
      vertex 6.53168 4.43647 0
      vertex 6.11353 4.22341 3
      vertex 6.53168 4.43647 3
    endloop
  endfacet
  facet normal -0.453994 0.891005 0
    outer loop
      vertex 6.11353 4.22341 3
      vertex 6.53168 4.43647 0
      vertex 6.11353 4.22341 0
    endloop
  endfacet
  facet normal 0.156422 0.98769 -0
    outer loop
      vertex 5.65 4.15 0
      vertex 5.18647 4.22341 3
      vertex 5.65 4.15 3
    endloop
  endfacet
  facet normal 0.156422 0.98769 0
    outer loop
      vertex 5.18647 4.22341 3
      vertex 5.65 4.15 0
      vertex 5.18647 4.22341 0
    endloop
  endfacet
  facet normal -0.707107 -0.707107 0
    outer loop
      vertex 6.86353 6.53168 0
      vertex 6.53168 6.86353 3
      vertex 6.53168 6.86353 0
    endloop
  endfacet
  facet normal -0.707107 -0.707107 0
    outer loop
      vertex 6.53168 6.86353 3
      vertex 6.86353 6.53168 0
      vertex 6.86353 6.53168 3
    endloop
  endfacet
  facet normal 0.891005 -0.453994 0
    outer loop
      vertex 4.22341 6.11353 3
      vertex 4.43647 6.53168 0
      vertex 4.43647 6.53168 3
    endloop
  endfacet
  facet normal 0.891005 -0.453994 0
    outer loop
      vertex 4.43647 6.53168 0
      vertex 4.22341 6.11353 3
      vertex 4.22341 6.11353 0
    endloop
  endfacet
  facet normal 0.707107 -0.707107 0
    outer loop
      vertex 4.43647 6.53168 3
      vertex 4.76832 6.86353 0
      vertex 4.76832 6.86353 3
    endloop
  endfacet
  facet normal 0.707107 -0.707107 0
    outer loop
      vertex 4.76832 6.86353 0
      vertex 4.43647 6.53168 3
      vertex 4.43647 6.53168 0
    endloop
  endfacet
  facet normal -0.156422 0.98769 0
    outer loop
      vertex 6.11353 4.22341 0
      vertex 5.65 4.15 3
      vertex 6.11353 4.22341 3
    endloop
  endfacet
  facet normal -0.156422 0.98769 0
    outer loop
      vertex 5.65 4.15 3
      vertex 6.11353 4.22341 0
      vertex 5.65 4.15 0
    endloop
  endfacet
  facet normal -0.156443 -0.987687 0
    outer loop
      vertex 5.65 7.15 0
      vertex 6.11353 7.07658 3
      vertex 5.65 7.15 3
    endloop
  endfacet
  facet normal -0.156443 -0.987687 -0
    outer loop
      vertex 6.11353 7.07658 3
      vertex 5.65 7.15 0
      vertex 6.11353 7.07658 0
    endloop
  endfacet
  facet normal 0.453994 0.891005 -0
    outer loop
      vertex 5.18647 4.22341 0
      vertex 4.76832 4.43647 3
      vertex 5.18647 4.22341 3
    endloop
  endfacet
  facet normal 0.453994 0.891005 0
    outer loop
      vertex 4.76832 4.43647 3
      vertex 5.18647 4.22341 0
      vertex 4.76832 4.43647 0
    endloop
  endfacet
  facet normal -0.707107 0.707107 0
    outer loop
      vertex 6.53168 4.43647 0
      vertex 6.86353 4.76832 3
      vertex 6.86353 4.76832 0
    endloop
  endfacet
  facet normal -0.707107 0.707107 0
    outer loop
      vertex 6.86353 4.76832 3
      vertex 6.53168 4.43647 0
      vertex 6.53168 4.43647 3
    endloop
  endfacet
  facet normal 0.891005 0.453994 0
    outer loop
      vertex 4.43647 4.76832 3
      vertex 4.22341 5.18647 0
      vertex 4.22341 5.18647 3
    endloop
  endfacet
  facet normal 0.891005 0.453994 0
    outer loop
      vertex 4.22341 5.18647 0
      vertex 4.43647 4.76832 3
      vertex 4.43647 4.76832 0
    endloop
  endfacet
  facet normal 0.453977 -0.891013 0
    outer loop
      vertex 4.76832 6.86353 0
      vertex 5.18647 7.07658 3
      vertex 4.76832 6.86353 3
    endloop
  endfacet
  facet normal 0.453977 -0.891013 0
    outer loop
      vertex 5.18647 7.07658 3
      vertex 4.76832 6.86353 0
      vertex 5.18647 7.07658 0
    endloop
  endfacet
  facet normal 0.156443 -0.987687 0
    outer loop
      vertex 5.18647 7.07658 0
      vertex 5.65 7.15 3
      vertex 5.18647 7.07658 3
    endloop
  endfacet
  facet normal 0.156443 -0.987687 0
    outer loop
      vertex 5.65 7.15 3
      vertex 5.18647 7.07658 0
      vertex 5.65 7.15 0
    endloop
  endfacet
  facet normal -0.453977 -0.891013 0
    outer loop
      vertex 6.11353 7.07658 0
      vertex 6.53168 6.86353 3
      vertex 6.11353 7.07658 3
    endloop
  endfacet
  facet normal -0.453977 -0.891013 -0
    outer loop
      vertex 6.53168 6.86353 3
      vertex 6.11353 7.07658 0
      vertex 6.53168 6.86353 0
    endloop
  endfacet
  facet normal 0.98769 -0.156422 0
    outer loop
      vertex 4.15 5.65 3
      vertex 4.22341 6.11353 0
      vertex 4.22341 6.11353 3
    endloop
  endfacet
  facet normal 0.98769 -0.156422 0
    outer loop
      vertex 4.22341 6.11353 0
      vertex 4.15 5.65 3
      vertex 4.15 5.65 0
    endloop
  endfacet
  facet normal -0.891013 0.453977 0
    outer loop
      vertex 6.86353 4.76832 0
      vertex 7.07658 5.18647 3
      vertex 7.07658 5.18647 0
    endloop
  endfacet
  facet normal -0.891013 0.453977 0
    outer loop
      vertex 7.07658 5.18647 3
      vertex 6.86353 4.76832 0
      vertex 6.86353 4.76832 3
    endloop
  endfacet
  facet normal -0.987687 0.156443 0
    outer loop
      vertex 7.07658 5.18647 0
      vertex 7.15 5.65 3
      vertex 7.15 5.65 0
    endloop
  endfacet
  facet normal -0.987687 0.156443 0
    outer loop
      vertex 7.15 5.65 3
      vertex 7.07658 5.18647 0
      vertex 7.07658 5.18647 3
    endloop
  endfacet
  facet normal 0.707107 0.707107 0
    outer loop
      vertex 4.76832 4.43647 3
      vertex 4.43647 4.76832 0
      vertex 4.43647 4.76832 3
    endloop
  endfacet
  facet normal 0.707107 0.707107 0
    outer loop
      vertex 4.43647 4.76832 0
      vertex 4.76832 4.43647 3
      vertex 4.76832 4.43647 0
    endloop
  endfacet
  facet normal 0.987689 0.156432 0
    outer loop
      vertex 4.22341 36.1865 3
      vertex 4.15 36.65 0
      vertex 4.15 36.65 3
    endloop
  endfacet
  facet normal 0.987689 0.156432 0
    outer loop
      vertex 4.15 36.65 0
      vertex 4.22341 36.1865 3
      vertex 4.22341 36.1865 0
    endloop
  endfacet
  facet normal -0.987685 -0.156453 0
    outer loop
      vertex 7.15 36.65 0
      vertex 7.07658 37.1135 3
      vertex 7.07658 37.1135 0
    endloop
  endfacet
  facet normal -0.987685 -0.156453 0
    outer loop
      vertex 7.07658 37.1135 3
      vertex 7.15 36.65 0
      vertex 7.15 36.65 3
    endloop
  endfacet
  facet normal -0.891035 -0.453934 0
    outer loop
      vertex 7.07658 37.1135 0
      vertex 6.86353 37.5317 3
      vertex 6.86353 37.5317 0
    endloop
  endfacet
  facet normal -0.891035 -0.453934 0
    outer loop
      vertex 6.86353 37.5317 3
      vertex 7.07658 37.1135 0
      vertex 7.07658 37.1135 3
    endloop
  endfacet
  facet normal -0.891035 0.453934 0
    outer loop
      vertex 6.86353 35.7683 0
      vertex 7.07658 36.1865 3
      vertex 7.07658 36.1865 0
    endloop
  endfacet
  facet normal -0.891035 0.453934 0
    outer loop
      vertex 7.07658 36.1865 3
      vertex 6.86353 35.7683 0
      vertex 6.86353 35.7683 3
    endloop
  endfacet
  facet normal -0.454061 0.89097 0
    outer loop
      vertex 6.53168 35.4365 0
      vertex 6.11353 35.2234 3
      vertex 6.53168 35.4365 3
    endloop
  endfacet
  facet normal -0.454061 0.89097 0
    outer loop
      vertex 6.11353 35.2234 3
      vertex 6.53168 35.4365 0
      vertex 6.11353 35.2234 0
    endloop
  endfacet
  facet normal 0.156401 0.987694 -0
    outer loop
      vertex 5.65 35.15 0
      vertex 5.18647 35.2234 3
      vertex 5.65 35.15 3
    endloop
  endfacet
  facet normal 0.156401 0.987694 0
    outer loop
      vertex 5.18647 35.2234 3
      vertex 5.65 35.15 0
      vertex 5.18647 35.2234 0
    endloop
  endfacet
  facet normal -0.707054 -0.70716 0
    outer loop
      vertex 6.86353 37.5317 0
      vertex 6.53168 37.8635 3
      vertex 6.53168 37.8635 0
    endloop
  endfacet
  facet normal -0.707054 -0.70716 0
    outer loop
      vertex 6.53168 37.8635 3
      vertex 6.86353 37.5317 0
      vertex 6.86353 37.5317 3
    endloop
  endfacet
  facet normal 0.891027 -0.453951 0
    outer loop
      vertex 4.22341 37.1135 3
      vertex 4.43647 37.5317 0
      vertex 4.43647 37.5317 3
    endloop
  endfacet
  facet normal 0.891027 -0.453951 0
    outer loop
      vertex 4.43647 37.5317 0
      vertex 4.22341 37.1135 3
      vertex 4.22341 37.1135 0
    endloop
  endfacet
  facet normal 0.707054 -0.70716 0
    outer loop
      vertex 4.43647 37.5317 3
      vertex 4.76832 37.8635 0
      vertex 4.76832 37.8635 3
    endloop
  endfacet
  facet normal 0.707054 -0.70716 0
    outer loop
      vertex 4.76832 37.8635 0
      vertex 4.43647 37.5317 3
      vertex 4.43647 37.5317 0
    endloop
  endfacet
  facet normal -0.156401 0.987694 0
    outer loop
      vertex 6.11353 35.2234 0
      vertex 5.65 35.15 3
      vertex 6.11353 35.2234 3
    endloop
  endfacet
  facet normal -0.156401 0.987694 0
    outer loop
      vertex 5.65 35.15 3
      vertex 6.11353 35.2234 0
      vertex 5.65 35.15 0
    endloop
  endfacet
  facet normal -0.156401 -0.987694 0
    outer loop
      vertex 5.65 38.15 0
      vertex 6.11353 38.0766 3
      vertex 5.65 38.15 3
    endloop
  endfacet
  facet normal -0.156401 -0.987694 -0
    outer loop
      vertex 6.11353 38.0766 3
      vertex 5.65 38.15 0
      vertex 6.11353 38.0766 0
    endloop
  endfacet
  facet normal 0.454061 0.89097 -0
    outer loop
      vertex 5.18647 35.2234 0
      vertex 4.76832 35.4365 3
      vertex 5.18647 35.2234 3
    endloop
  endfacet
  facet normal 0.454061 0.89097 0
    outer loop
      vertex 4.76832 35.4365 3
      vertex 5.18647 35.2234 0
      vertex 4.76832 35.4365 0
    endloop
  endfacet
  facet normal -0.707054 0.70716 0
    outer loop
      vertex 6.53168 35.4365 0
      vertex 6.86353 35.7683 3
      vertex 6.86353 35.7683 0
    endloop
  endfacet
  facet normal -0.707054 0.70716 0
    outer loop
      vertex 6.86353 35.7683 3
      vertex 6.53168 35.4365 0
      vertex 6.53168 35.4365 3
    endloop
  endfacet
  facet normal 0.891027 0.453951 0
    outer loop
      vertex 4.43647 35.7683 3
      vertex 4.22341 36.1865 0
      vertex 4.22341 36.1865 3
    endloop
  endfacet
  facet normal 0.891027 0.453951 0
    outer loop
      vertex 4.22341 36.1865 0
      vertex 4.43647 35.7683 3
      vertex 4.43647 35.7683 0
    endloop
  endfacet
  facet normal 0.454061 -0.89097 0
    outer loop
      vertex 4.76832 37.8635 0
      vertex 5.18647 38.0766 3
      vertex 4.76832 37.8635 3
    endloop
  endfacet
  facet normal 0.454061 -0.89097 0
    outer loop
      vertex 5.18647 38.0766 3
      vertex 4.76832 37.8635 0
      vertex 5.18647 38.0766 0
    endloop
  endfacet
  facet normal 0.156401 -0.987694 0
    outer loop
      vertex 5.18647 38.0766 0
      vertex 5.65 38.15 3
      vertex 5.18647 38.0766 3
    endloop
  endfacet
  facet normal 0.156401 -0.987694 0
    outer loop
      vertex 5.65 38.15 3
      vertex 5.18647 38.0766 0
      vertex 5.65 38.15 0
    endloop
  endfacet
  facet normal -0.454061 -0.89097 0
    outer loop
      vertex 6.11353 38.0766 0
      vertex 6.53168 37.8635 3
      vertex 6.11353 38.0766 3
    endloop
  endfacet
  facet normal -0.454061 -0.89097 -0
    outer loop
      vertex 6.53168 37.8635 3
      vertex 6.11353 38.0766 0
      vertex 6.53168 37.8635 0
    endloop
  endfacet
  facet normal 0.987689 -0.156432 0
    outer loop
      vertex 4.15 36.65 3
      vertex 4.22341 37.1135 0
      vertex 4.22341 37.1135 3
    endloop
  endfacet
  facet normal 0.987689 -0.156432 0
    outer loop
      vertex 4.22341 37.1135 0
      vertex 4.15 36.65 3
      vertex 4.15 36.65 0
    endloop
  endfacet
  facet normal -0.987685 0.156453 0
    outer loop
      vertex 7.07658 36.1865 0
      vertex 7.15 36.65 3
      vertex 7.15 36.65 0
    endloop
  endfacet
  facet normal -0.987685 0.156453 0
    outer loop
      vertex 7.15 36.65 3
      vertex 7.07658 36.1865 0
      vertex 7.07658 36.1865 3
    endloop
  endfacet
  facet normal 0.707054 0.70716 0
    outer loop
      vertex 4.76832 35.4365 3
      vertex 4.43647 35.7683 0
      vertex 4.43647 35.7683 3
    endloop
  endfacet
  facet normal 0.707054 0.70716 0
    outer loop
      vertex 4.43647 35.7683 0
      vertex 4.76832 35.4365 3
      vertex 4.76832 35.4365 0
    endloop
  endfacet
  facet normal 0.987692 0.156411 0
    outer loop
      vertex 35.2234 36.1865 3
      vertex 35.15 36.65 0
      vertex 35.15 36.65 3
    endloop
  endfacet
  facet normal 0.987692 0.156411 0
    outer loop
      vertex 35.15 36.65 0
      vertex 35.2234 36.1865 3
      vertex 35.2234 36.1865 0
    endloop
  endfacet
  facet normal -0.987692 -0.156411 0
    outer loop
      vertex 38.15 36.65 0
      vertex 38.0766 37.1135 3
      vertex 38.0766 37.1135 0
    endloop
  endfacet
  facet normal -0.987692 -0.156411 0
    outer loop
      vertex 38.0766 37.1135 3
      vertex 38.15 36.65 0
      vertex 38.15 36.65 3
    endloop
  endfacet
  facet normal -0.890992 -0.454018 0
    outer loop
      vertex 38.0766 37.1135 0
      vertex 37.8635 37.5317 3
      vertex 37.8635 37.5317 0
    endloop
  endfacet
  facet normal -0.890992 -0.454018 0
    outer loop
      vertex 37.8635 37.5317 3
      vertex 38.0766 37.1135 0
      vertex 38.0766 37.1135 3
    endloop
  endfacet
  facet normal -0.890992 0.454018 0
    outer loop
      vertex 37.8635 35.7683 0
      vertex 38.0766 36.1865 3
      vertex 38.0766 36.1865 0
    endloop
  endfacet
  facet normal -0.890992 0.454018 0
    outer loop
      vertex 38.0766 36.1865 3
      vertex 37.8635 35.7683 0
      vertex 37.8635 35.7683 3
    endloop
  endfacet
  facet normal -0.454018 0.890992 0
    outer loop
      vertex 37.5317 35.4365 0
      vertex 37.1135 35.2234 3
      vertex 37.5317 35.4365 3
    endloop
  endfacet
  facet normal -0.454018 0.890992 0
    outer loop
      vertex 37.1135 35.2234 3
      vertex 37.5317 35.4365 0
      vertex 37.1135 35.2234 0
    endloop
  endfacet
  facet normal 0.156411 0.987692 -0
    outer loop
      vertex 36.65 35.15 0
      vertex 36.1865 35.2234 3
      vertex 36.65 35.15 3
    endloop
  endfacet
  facet normal 0.156411 0.987692 0
    outer loop
      vertex 36.1865 35.2234 3
      vertex 36.65 35.15 0
      vertex 36.1865 35.2234 0
    endloop
  endfacet
  facet normal -0.707107 -0.707107 0
    outer loop
      vertex 37.8635 37.5317 0
      vertex 37.5317 37.8635 3
      vertex 37.5317 37.8635 0
    endloop
  endfacet
  facet normal -0.707107 -0.707107 0
    outer loop
      vertex 37.5317 37.8635 3
      vertex 37.8635 37.5317 0
      vertex 37.8635 37.5317 3
    endloop
  endfacet
  facet normal 0.890992 -0.454018 0
    outer loop
      vertex 35.2234 37.1135 3
      vertex 35.4365 37.5317 0
      vertex 35.4365 37.5317 3
    endloop
  endfacet
  facet normal 0.890992 -0.454018 0
    outer loop
      vertex 35.4365 37.5317 0
      vertex 35.2234 37.1135 3
      vertex 35.2234 37.1135 0
    endloop
  endfacet
  facet normal 0.707107 -0.707107 0
    outer loop
      vertex 35.4365 37.5317 3
      vertex 35.7683 37.8635 0
      vertex 35.7683 37.8635 3
    endloop
  endfacet
  facet normal 0.707107 -0.707107 0
    outer loop
      vertex 35.7683 37.8635 0
      vertex 35.4365 37.5317 3
      vertex 35.4365 37.5317 0
    endloop
  endfacet
  facet normal -0.156411 0.987692 0
    outer loop
      vertex 37.1135 35.2234 0
      vertex 36.65 35.15 3
      vertex 37.1135 35.2234 3
    endloop
  endfacet
  facet normal -0.156411 0.987692 0
    outer loop
      vertex 36.65 35.15 3
      vertex 37.1135 35.2234 0
      vertex 36.65 35.15 0
    endloop
  endfacet
  facet normal -0.156411 -0.987692 0
    outer loop
      vertex 36.65 38.15 0
      vertex 37.1135 38.0766 3
      vertex 36.65 38.15 3
    endloop
  endfacet
  facet normal -0.156411 -0.987692 -0
    outer loop
      vertex 37.1135 38.0766 3
      vertex 36.65 38.15 0
      vertex 37.1135 38.0766 0
    endloop
  endfacet
  facet normal 0.454018 0.890992 -0
    outer loop
      vertex 36.1865 35.2234 0
      vertex 35.7683 35.4365 3
      vertex 36.1865 35.2234 3
    endloop
  endfacet
  facet normal 0.454018 0.890992 0
    outer loop
      vertex 35.7683 35.4365 3
      vertex 36.1865 35.2234 0
      vertex 35.7683 35.4365 0
    endloop
  endfacet
  facet normal -0.707107 0.707107 0
    outer loop
      vertex 37.5317 35.4365 0
      vertex 37.8635 35.7683 3
      vertex 37.8635 35.7683 0
    endloop
  endfacet
  facet normal -0.707107 0.707107 0
    outer loop
      vertex 37.8635 35.7683 3
      vertex 37.5317 35.4365 0
      vertex 37.5317 35.4365 3
    endloop
  endfacet
  facet normal 0.890992 0.454018 0
    outer loop
      vertex 35.4365 35.7683 3
      vertex 35.2234 36.1865 0
      vertex 35.2234 36.1865 3
    endloop
  endfacet
  facet normal 0.890992 0.454018 0
    outer loop
      vertex 35.2234 36.1865 0
      vertex 35.4365 35.7683 3
      vertex 35.4365 35.7683 0
    endloop
  endfacet
  facet normal 0.454018 -0.890992 0
    outer loop
      vertex 35.7683 37.8635 0
      vertex 36.1865 38.0766 3
      vertex 35.7683 37.8635 3
    endloop
  endfacet
  facet normal 0.454018 -0.890992 0
    outer loop
      vertex 36.1865 38.0766 3
      vertex 35.7683 37.8635 0
      vertex 36.1865 38.0766 0
    endloop
  endfacet
  facet normal 0.156411 -0.987692 0
    outer loop
      vertex 36.1865 38.0766 0
      vertex 36.65 38.15 3
      vertex 36.1865 38.0766 3
    endloop
  endfacet
  facet normal 0.156411 -0.987692 0
    outer loop
      vertex 36.65 38.15 3
      vertex 36.1865 38.0766 0
      vertex 36.65 38.15 0
    endloop
  endfacet
  facet normal -0.454018 -0.890992 0
    outer loop
      vertex 37.1135 38.0766 0
      vertex 37.5317 37.8635 3
      vertex 37.1135 38.0766 3
    endloop
  endfacet
  facet normal -0.454018 -0.890992 -0
    outer loop
      vertex 37.5317 37.8635 3
      vertex 37.1135 38.0766 0
      vertex 37.5317 37.8635 0
    endloop
  endfacet
  facet normal 0.987692 -0.156411 0
    outer loop
      vertex 35.15 36.65 3
      vertex 35.2234 37.1135 0
      vertex 35.2234 37.1135 3
    endloop
  endfacet
  facet normal 0.987692 -0.156411 0
    outer loop
      vertex 35.2234 37.1135 0
      vertex 35.15 36.65 3
      vertex 35.15 36.65 0
    endloop
  endfacet
  facet normal -0.987692 0.156411 0
    outer loop
      vertex 38.0766 36.1865 0
      vertex 38.15 36.65 3
      vertex 38.15 36.65 0
    endloop
  endfacet
  facet normal -0.987692 0.156411 0
    outer loop
      vertex 38.15 36.65 3
      vertex 38.0766 36.1865 0
      vertex 38.0766 36.1865 3
    endloop
  endfacet
  facet normal 0.707107 0.707107 0
    outer loop
      vertex 35.7683 35.4365 3
      vertex 35.4365 35.7683 0
      vertex 35.4365 35.7683 3
    endloop
  endfacet
  facet normal 0.707107 0.707107 0
    outer loop
      vertex 35.4365 35.7683 0
      vertex 35.7683 35.4365 3
      vertex 35.7683 35.4365 0
    endloop
  endfacet
  facet normal 0.987694 0.156401 0
    outer loop
      vertex 35.2234 5.18647 3
      vertex 35.15 5.65 0
      vertex 35.15 5.65 3
    endloop
  endfacet
  facet normal 0.987694 0.156401 0
    outer loop
      vertex 35.15 5.65 0
      vertex 35.2234 5.18647 3
      vertex 35.2234 5.18647 0
    endloop
  endfacet
  facet normal -0.987694 -0.156401 0
    outer loop
      vertex 38.15 5.65 0
      vertex 38.0766 6.11353 3
      vertex 38.0766 6.11353 0
    endloop
  endfacet
  facet normal -0.987694 -0.156401 0
    outer loop
      vertex 38.0766 6.11353 3
      vertex 38.15 5.65 0
      vertex 38.15 5.65 3
    endloop
  endfacet
  facet normal -0.89097 -0.454061 0
    outer loop
      vertex 38.0766 6.11353 0
      vertex 37.8635 6.53168 3
      vertex 37.8635 6.53168 0
    endloop
  endfacet
  facet normal -0.89097 -0.454061 0
    outer loop
      vertex 37.8635 6.53168 3
      vertex 38.0766 6.11353 0
      vertex 38.0766 6.11353 3
    endloop
  endfacet
  facet normal -0.89097 0.454061 0
    outer loop
      vertex 37.8635 4.76832 0
      vertex 38.0766 5.18647 3
      vertex 38.0766 5.18647 0
    endloop
  endfacet
  facet normal -0.89097 0.454061 0
    outer loop
      vertex 38.0766 5.18647 3
      vertex 37.8635 4.76832 0
      vertex 37.8635 4.76832 3
    endloop
  endfacet
  facet normal -0.453951 0.891027 0
    outer loop
      vertex 37.5317 4.43647 0
      vertex 37.1135 4.22341 3
      vertex 37.5317 4.43647 3
    endloop
  endfacet
  facet normal -0.453951 0.891027 0
    outer loop
      vertex 37.1135 4.22341 3
      vertex 37.5317 4.43647 0
      vertex 37.1135 4.22341 0
    endloop
  endfacet
  facet normal 0.156432 0.987689 -0
    outer loop
      vertex 36.65 4.15 0
      vertex 36.1865 4.22341 3
      vertex 36.65 4.15 3
    endloop
  endfacet
  facet normal 0.156432 0.987689 0
    outer loop
      vertex 36.1865 4.22341 3
      vertex 36.65 4.15 0
      vertex 36.1865 4.22341 0
    endloop
  endfacet
  facet normal -0.70716 -0.707054 0
    outer loop
      vertex 37.8635 6.53168 0
      vertex 37.5317 6.86353 3
      vertex 37.5317 6.86353 0
    endloop
  endfacet
  facet normal -0.70716 -0.707054 0
    outer loop
      vertex 37.5317 6.86353 3
      vertex 37.8635 6.53168 0
      vertex 37.8635 6.53168 3
    endloop
  endfacet
  facet normal 0.89097 -0.454061 0
    outer loop
      vertex 35.2234 6.11353 3
      vertex 35.4365 6.53168 0
      vertex 35.4365 6.53168 3
    endloop
  endfacet
  facet normal 0.89097 -0.454061 0
    outer loop
      vertex 35.4365 6.53168 0
      vertex 35.2234 6.11353 3
      vertex 35.2234 6.11353 0
    endloop
  endfacet
  facet normal 0.70716 -0.707054 0
    outer loop
      vertex 35.4365 6.53168 3
      vertex 35.7683 6.86353 0
      vertex 35.7683 6.86353 3
    endloop
  endfacet
  facet normal 0.70716 -0.707054 0
    outer loop
      vertex 35.7683 6.86353 0
      vertex 35.4365 6.53168 3
      vertex 35.4365 6.53168 0
    endloop
  endfacet
  facet normal -0.156432 0.987689 0
    outer loop
      vertex 37.1135 4.22341 0
      vertex 36.65 4.15 3
      vertex 37.1135 4.22341 3
    endloop
  endfacet
  facet normal -0.156432 0.987689 0
    outer loop
      vertex 36.65 4.15 3
      vertex 37.1135 4.22341 0
      vertex 36.65 4.15 0
    endloop
  endfacet
  facet normal -0.156453 -0.987685 0
    outer loop
      vertex 36.65 7.15 0
      vertex 37.1135 7.07658 3
      vertex 36.65 7.15 3
    endloop
  endfacet
  facet normal -0.156453 -0.987685 -0
    outer loop
      vertex 37.1135 7.07658 3
      vertex 36.65 7.15 0
      vertex 37.1135 7.07658 0
    endloop
  endfacet
  facet normal 0.453951 0.891027 -0
    outer loop
      vertex 36.1865 4.22341 0
      vertex 35.7683 4.43647 3
      vertex 36.1865 4.22341 3
    endloop
  endfacet
  facet normal 0.453951 0.891027 0
    outer loop
      vertex 35.7683 4.43647 3
      vertex 36.1865 4.22341 0
      vertex 35.7683 4.43647 0
    endloop
  endfacet
  facet normal -0.70716 0.707054 0
    outer loop
      vertex 37.5317 4.43647 0
      vertex 37.8635 4.76832 3
      vertex 37.8635 4.76832 0
    endloop
  endfacet
  facet normal -0.70716 0.707054 0
    outer loop
      vertex 37.8635 4.76832 3
      vertex 37.5317 4.43647 0
      vertex 37.5317 4.43647 3
    endloop
  endfacet
  facet normal 0.89097 0.454061 0
    outer loop
      vertex 35.4365 4.76832 3
      vertex 35.2234 5.18647 0
      vertex 35.2234 5.18647 3
    endloop
  endfacet
  facet normal 0.89097 0.454061 0
    outer loop
      vertex 35.2234 5.18647 0
      vertex 35.4365 4.76832 3
      vertex 35.4365 4.76832 0
    endloop
  endfacet
  facet normal 0.453934 -0.891035 0
    outer loop
      vertex 35.7683 6.86353 0
      vertex 36.1865 7.07658 3
      vertex 35.7683 6.86353 3
    endloop
  endfacet
  facet normal 0.453934 -0.891035 0
    outer loop
      vertex 36.1865 7.07658 3
      vertex 35.7683 6.86353 0
      vertex 36.1865 7.07658 0
    endloop
  endfacet
  facet normal 0.156453 -0.987685 0
    outer loop
      vertex 36.1865 7.07658 0
      vertex 36.65 7.15 3
      vertex 36.1865 7.07658 3
    endloop
  endfacet
  facet normal 0.156453 -0.987685 0
    outer loop
      vertex 36.65 7.15 3
      vertex 36.1865 7.07658 0
      vertex 36.65 7.15 0
    endloop
  endfacet
  facet normal -0.453934 -0.891035 0
    outer loop
      vertex 37.1135 7.07658 0
      vertex 37.5317 6.86353 3
      vertex 37.1135 7.07658 3
    endloop
  endfacet
  facet normal -0.453934 -0.891035 -0
    outer loop
      vertex 37.5317 6.86353 3
      vertex 37.1135 7.07658 0
      vertex 37.5317 6.86353 0
    endloop
  endfacet
  facet normal 0.987694 -0.156401 0
    outer loop
      vertex 35.15 5.65 3
      vertex 35.2234 6.11353 0
      vertex 35.2234 6.11353 3
    endloop
  endfacet
  facet normal 0.987694 -0.156401 0
    outer loop
      vertex 35.2234 6.11353 0
      vertex 35.15 5.65 3
      vertex 35.15 5.65 0
    endloop
  endfacet
  facet normal -0.987694 0.156401 0
    outer loop
      vertex 38.0766 5.18647 0
      vertex 38.15 5.65 3
      vertex 38.15 5.65 0
    endloop
  endfacet
  facet normal -0.987694 0.156401 0
    outer loop
      vertex 38.15 5.65 3
      vertex 38.0766 5.18647 0
      vertex 38.0766 5.18647 3
    endloop
  endfacet
  facet normal 0.70716 0.707054 0
    outer loop
      vertex 35.7683 4.43647 3
      vertex 35.4365 4.76832 0
      vertex 35.4365 4.76832 3
    endloop
  endfacet
  facet normal 0.70716 0.707054 0
    outer loop
      vertex 35.4365 4.76832 0
      vertex 35.7683 4.43647 3
      vertex 35.7683 4.43647 0
    endloop
  endfacet
  facet normal -0.891007 -0.453989 0
    outer loop
      vertex 30.6606 24.2402 0
      vertex 29.2402 27.0279 3
      vertex 29.2402 27.0279 0
    endloop
  endfacet
  facet normal -0.891007 -0.453989 0
    outer loop
      vertex 29.2402 27.0279 3
      vertex 30.6606 24.2402 0
      vertex 30.6606 24.2402 3
    endloop
  endfacet
  facet normal -0.98769 -0.156422 0
    outer loop
      vertex 31.15 21.15 0
      vertex 30.6606 24.2402 3
      vertex 30.6606 24.2402 0
    endloop
  endfacet
  facet normal -0.98769 -0.156422 0
    outer loop
      vertex 30.6606 24.2402 3
      vertex 31.15 21.15 0
      vertex 31.15 21.15 3
    endloop
  endfacet
  facet normal -0.707107 -0.707107 0
    outer loop
      vertex 29.2402 27.0279 0
      vertex 27.0279 29.2402 3
      vertex 27.0279 29.2402 0
    endloop
  endfacet
  facet normal -0.707107 -0.707107 0
    outer loop
      vertex 27.0279 29.2402 3
      vertex 29.2402 27.0279 0
      vertex 29.2402 27.0279 3
    endloop
  endfacet
  facet normal -0.156422 -0.98769 0
    outer loop
      vertex 21.15 31.15 0
      vertex 24.2402 30.6606 3
      vertex 21.15 31.15 3
    endloop
  endfacet
  facet normal -0.156422 -0.98769 -0
    outer loop
      vertex 24.2402 30.6606 3
      vertex 21.15 31.15 0
      vertex 24.2402 30.6606 0
    endloop
  endfacet
  facet normal -0.453989 -0.891007 0
    outer loop
      vertex 24.2402 30.6606 0
      vertex 27.0279 29.2402 3
      vertex 24.2402 30.6606 3
    endloop
  endfacet
  facet normal -0.453989 -0.891007 -0
    outer loop
      vertex 27.0279 29.2402 3
      vertex 24.2402 30.6606 0
      vertex 27.0279 29.2402 0
    endloop
  endfacet
  facet normal 0.453989 -0.891007 0
    outer loop
      vertex 15.2721 29.2402 0
      vertex 18.0598 30.6606 3
      vertex 15.2721 29.2402 3
    endloop
  endfacet
  facet normal 0.453989 -0.891007 0
    outer loop
      vertex 18.0598 30.6606 3
      vertex 15.2721 29.2402 0
      vertex 18.0598 30.6606 0
    endloop
  endfacet
  facet normal 0.156422 0.98769 -0
    outer loop
      vertex 21.15 11.15 0
      vertex 18.0598 11.6394 3
      vertex 21.15 11.15 3
    endloop
  endfacet
  facet normal 0.156422 0.98769 0
    outer loop
      vertex 18.0598 11.6394 3
      vertex 21.15 11.15 0
      vertex 18.0598 11.6394 0
    endloop
  endfacet
  facet normal -0.707107 0.707107 0
    outer loop
      vertex 29.2402 15.2721 0
      vertex 27.0279 13.0598 3
      vertex 29.2402 15.2721 3
    endloop
  endfacet
  facet normal -0.707107 0.707107 0
    outer loop
      vertex 27.0279 13.0598 3
      vertex 29.2402 15.2721 0
      vertex 27.0279 13.0598 0
    endloop
  endfacet
  facet normal 0.891007 0.453989 0
    outer loop
      vertex 13.0598 15.2721 3
      vertex 11.6394 18.0598 0
      vertex 11.6394 18.0598 3
    endloop
  endfacet
  facet normal 0.891007 0.453989 0
    outer loop
      vertex 11.6394 18.0598 0
      vertex 13.0598 15.2721 3
      vertex 13.0598 15.2721 0
    endloop
  endfacet
  facet normal 0.156422 -0.98769 0
    outer loop
      vertex 18.0598 30.6606 0
      vertex 21.15 31.15 3
      vertex 18.0598 30.6606 3
    endloop
  endfacet
  facet normal 0.156422 -0.98769 0
    outer loop
      vertex 21.15 31.15 3
      vertex 18.0598 30.6606 0
      vertex 21.15 31.15 0
    endloop
  endfacet
  facet normal -0.453989 0.891007 0
    outer loop
      vertex 27.0279 13.0598 0
      vertex 24.2402 11.6394 3
      vertex 27.0279 13.0598 3
    endloop
  endfacet
  facet normal -0.453989 0.891007 0
    outer loop
      vertex 24.2402 11.6394 3
      vertex 27.0279 13.0598 0
      vertex 24.2402 11.6394 0
    endloop
  endfacet
  facet normal -0.156422 0.98769 0
    outer loop
      vertex 24.2402 11.6394 0
      vertex 21.15 11.15 3
      vertex 24.2402 11.6394 3
    endloop
  endfacet
  facet normal -0.156422 0.98769 0
    outer loop
      vertex 21.15 11.15 3
      vertex 24.2402 11.6394 0
      vertex 21.15 11.15 0
    endloop
  endfacet
  facet normal 0.98769 0.156422 0
    outer loop
      vertex 11.6394 18.0598 3
      vertex 11.15 21.15 0
      vertex 11.15 21.15 3
    endloop
  endfacet
  facet normal 0.98769 0.156422 0
    outer loop
      vertex 11.15 21.15 0
      vertex 11.6394 18.0598 3
      vertex 11.6394 18.0598 0
    endloop
  endfacet
  facet normal 0.891007 -0.453989 0
    outer loop
      vertex 11.6394 24.2402 3
      vertex 13.0598 27.0279 0
      vertex 13.0598 27.0279 3
    endloop
  endfacet
  facet normal 0.891007 -0.453989 0
    outer loop
      vertex 13.0598 27.0279 0
      vertex 11.6394 24.2402 3
      vertex 11.6394 24.2402 0
    endloop
  endfacet
  facet normal 0.707107 -0.707107 0
    outer loop
      vertex 13.0598 27.0279 3
      vertex 15.2721 29.2402 0
      vertex 15.2721 29.2402 3
    endloop
  endfacet
  facet normal 0.707107 -0.707107 0
    outer loop
      vertex 15.2721 29.2402 0
      vertex 13.0598 27.0279 3
      vertex 13.0598 27.0279 0
    endloop
  endfacet
  facet normal -0.891007 0.453989 0
    outer loop
      vertex 29.2402 15.2721 0
      vertex 30.6606 18.0598 3
      vertex 30.6606 18.0598 0
    endloop
  endfacet
  facet normal -0.891007 0.453989 0
    outer loop
      vertex 30.6606 18.0598 3
      vertex 29.2402 15.2721 0
      vertex 29.2402 15.2721 3
    endloop
  endfacet
  facet normal -0.98769 0.156422 0
    outer loop
      vertex 30.6606 18.0598 0
      vertex 31.15 21.15 3
      vertex 31.15 21.15 0
    endloop
  endfacet
  facet normal -0.98769 0.156422 0
    outer loop
      vertex 31.15 21.15 3
      vertex 30.6606 18.0598 0
      vertex 30.6606 18.0598 3
    endloop
  endfacet
  facet normal 0.707107 0.707107 0
    outer loop
      vertex 15.2721 13.0598 3
      vertex 13.0598 15.2721 0
      vertex 13.0598 15.2721 3
    endloop
  endfacet
  facet normal 0.707107 0.707107 0
    outer loop
      vertex 13.0598 15.2721 0
      vertex 15.2721 13.0598 3
      vertex 15.2721 13.0598 0
    endloop
  endfacet
  facet normal 0.98769 -0.156422 0
    outer loop
      vertex 11.15 21.15 3
      vertex 11.6394 24.2402 0
      vertex 11.6394 24.2402 3
    endloop
  endfacet
  facet normal 0.98769 -0.156422 0
    outer loop
      vertex 11.6394 24.2402 0
      vertex 11.15 21.15 3
      vertex 11.15 21.15 0
    endloop
  endfacet
  facet normal 0.453989 0.891007 -0
    outer loop
      vertex 18.0598 11.6394 0
      vertex 15.2721 13.0598 3
      vertex 18.0598 11.6394 3
    endloop
  endfacet
  facet normal 0.453989 0.891007 0
    outer loop
      vertex 15.2721 13.0598 3
      vertex 18.0598 11.6394 0
      vertex 15.2721 13.0598 0
    endloop
  endfacet
  facet normal 0.987679 0.156494 0
    outer loop
      vertex 49.9224 32.8775 3
      vertex 49.8 33.65 0
      vertex 49.8 33.65 3
    endloop
  endfacet
  facet normal 0.987679 0.156494 0
    outer loop
      vertex 49.8 33.65 0
      vertex 49.9224 32.8775 3
      vertex 49.9224 32.8775 0
    endloop
  endfacet
  facet normal -0.987679 -0.156494 0
    outer loop
      vertex 54.8 33.65 0
      vertex 54.6776 34.4225 3
      vertex 54.6776 34.4225 0
    endloop
  endfacet
  facet normal -0.987679 -0.156494 0
    outer loop
      vertex 54.6776 34.4225 3
      vertex 54.8 33.65 0
      vertex 54.8 33.65 3
    endloop
  endfacet
  facet normal -0.891027 -0.453951 0
    outer loop
      vertex 54.6776 34.4225 0
      vertex 54.3225 35.1195 3
      vertex 54.3225 35.1195 0
    endloop
  endfacet
  facet normal -0.891027 -0.453951 0
    outer loop
      vertex 54.3225 35.1195 3
      vertex 54.6776 34.4225 0
      vertex 54.6776 34.4225 3
    endloop
  endfacet
  facet normal -0.453951 0.891027 0
    outer loop
      vertex 53.7695 31.6275 0
      vertex 53.0725 31.2724 3
      vertex 53.7695 31.6275 3
    endloop
  endfacet
  facet normal -0.453951 0.891027 0
    outer loop
      vertex 53.0725 31.2724 3
      vertex 53.7695 31.6275 0
      vertex 53.0725 31.2724 0
    endloop
  endfacet
  facet normal 0.156494 -0.987679 0
    outer loop
      vertex 51.5275 36.0276 0
      vertex 52.3 36.15 3
      vertex 51.5275 36.0276 3
    endloop
  endfacet
  facet normal 0.156494 -0.987679 0
    outer loop
      vertex 52.3 36.15 3
      vertex 51.5275 36.0276 0
      vertex 52.3 36.15 0
    endloop
  endfacet
  facet normal 0.891027 -0.453951 0
    outer loop
      vertex 49.9224 34.4225 3
      vertex 50.2775 35.1195 0
      vertex 50.2775 35.1195 3
    endloop
  endfacet
  facet normal 0.891027 -0.453951 0
    outer loop
      vertex 50.2775 35.1195 0
      vertex 49.9224 34.4225 3
      vertex 49.9224 34.4225 0
    endloop
  endfacet
  facet normal -0.156494 -0.987679 0
    outer loop
      vertex 52.3 36.15 0
      vertex 53.0725 36.0276 3
      vertex 52.3 36.15 3
    endloop
  endfacet
  facet normal -0.156494 -0.987679 -0
    outer loop
      vertex 53.0725 36.0276 3
      vertex 52.3 36.15 0
      vertex 53.0725 36.0276 0
    endloop
  endfacet
  facet normal -0.891027 0.453951 0
    outer loop
      vertex 54.3225 32.1805 0
      vertex 54.6776 32.8775 3
      vertex 54.6776 32.8775 0
    endloop
  endfacet
  facet normal -0.891027 0.453951 0
    outer loop
      vertex 54.6776 32.8775 3
      vertex 54.3225 32.1805 0
      vertex 54.3225 32.1805 3
    endloop
  endfacet
  facet normal -0.707107 -0.707107 0
    outer loop
      vertex 54.3225 35.1195 0
      vertex 53.7695 35.6725 3
      vertex 53.7695 35.6725 0
    endloop
  endfacet
  facet normal -0.707107 -0.707107 0
    outer loop
      vertex 53.7695 35.6725 3
      vertex 54.3225 35.1195 0
      vertex 54.3225 35.1195 3
    endloop
  endfacet
  facet normal 0.891027 0.453951 0
    outer loop
      vertex 50.2775 32.1805 3
      vertex 49.9224 32.8775 0
      vertex 49.9224 32.8775 3
    endloop
  endfacet
  facet normal 0.891027 0.453951 0
    outer loop
      vertex 49.9224 32.8775 0
      vertex 50.2775 32.1805 3
      vertex 50.2775 32.1805 0
    endloop
  endfacet
  facet normal -0.453951 -0.891027 0
    outer loop
      vertex 53.0725 36.0276 0
      vertex 53.7695 35.6725 3
      vertex 53.0725 36.0276 3
    endloop
  endfacet
  facet normal -0.453951 -0.891027 -0
    outer loop
      vertex 53.7695 35.6725 3
      vertex 53.0725 36.0276 0
      vertex 53.7695 35.6725 0
    endloop
  endfacet
  facet normal 0.987679 -0.156494 0
    outer loop
      vertex 49.8 33.65 3
      vertex 49.9224 34.4225 0
      vertex 49.9224 34.4225 3
    endloop
  endfacet
  facet normal 0.987679 -0.156494 0
    outer loop
      vertex 49.9224 34.4225 0
      vertex 49.8 33.65 3
      vertex 49.8 33.65 0
    endloop
  endfacet
  facet normal 0.156494 0.987679 -0
    outer loop
      vertex 52.3 31.15 0
      vertex 51.5275 31.2724 3
      vertex 52.3 31.15 3
    endloop
  endfacet
  facet normal 0.156494 0.987679 0
    outer loop
      vertex 51.5275 31.2724 3
      vertex 52.3 31.15 0
      vertex 51.5275 31.2724 0
    endloop
  endfacet
  facet normal -0.707107 0.707107 0
    outer loop
      vertex 53.7695 31.6275 0
      vertex 54.3225 32.1805 3
      vertex 54.3225 32.1805 0
    endloop
  endfacet
  facet normal -0.707107 0.707107 0
    outer loop
      vertex 54.3225 32.1805 3
      vertex 53.7695 31.6275 0
      vertex 53.7695 31.6275 3
    endloop
  endfacet
  facet normal 0.707107 0.707107 0
    outer loop
      vertex 50.8305 31.6275 3
      vertex 50.2775 32.1805 0
      vertex 50.2775 32.1805 3
    endloop
  endfacet
  facet normal 0.707107 0.707107 0
    outer loop
      vertex 50.2775 32.1805 0
      vertex 50.8305 31.6275 3
      vertex 50.8305 31.6275 0
    endloop
  endfacet
  facet normal -0.156494 0.987679 0
    outer loop
      vertex 53.0725 31.2724 0
      vertex 52.3 31.15 3
      vertex 53.0725 31.2724 3
    endloop
  endfacet
  facet normal -0.156494 0.987679 0
    outer loop
      vertex 52.3 31.15 3
      vertex 53.0725 31.2724 0
      vertex 52.3 31.15 0
    endloop
  endfacet
  facet normal -0.987679 0.156494 0
    outer loop
      vertex 54.6776 32.8775 0
      vertex 54.8 33.65 3
      vertex 54.8 33.65 0
    endloop
  endfacet
  facet normal -0.987679 0.156494 0
    outer loop
      vertex 54.8 33.65 3
      vertex 54.6776 32.8775 0
      vertex 54.6776 32.8775 3
    endloop
  endfacet
  facet normal 0.707107 -0.707107 0
    outer loop
      vertex 50.2775 35.1195 3
      vertex 50.8305 35.6725 0
      vertex 50.8305 35.6725 3
    endloop
  endfacet
  facet normal 0.707107 -0.707107 0
    outer loop
      vertex 50.8305 35.6725 0
      vertex 50.2775 35.1195 3
      vertex 50.2775 35.1195 0
    endloop
  endfacet
  facet normal 0.453951 -0.891027 0
    outer loop
      vertex 50.8305 35.6725 0
      vertex 51.5275 36.0276 3
      vertex 50.8305 35.6725 3
    endloop
  endfacet
  facet normal 0.453951 -0.891027 0
    outer loop
      vertex 51.5275 36.0276 3
      vertex 50.8305 35.6725 0
      vertex 51.5275 36.0276 0
    endloop
  endfacet
  facet normal 0.453951 0.891027 -0
    outer loop
      vertex 51.5275 31.2724 0
      vertex 50.8305 31.6275 3
      vertex 51.5275 31.2724 3
    endloop
  endfacet
  facet normal 0.453951 0.891027 0
    outer loop
      vertex 50.8305 31.6275 3
      vertex 51.5275 31.2724 0
      vertex 50.8305 31.6275 0
    endloop
  endfacet
  facet normal 0.98768 0.156486 0
    outer loop
      vertex 49.9224 7.87746 3
      vertex 49.8 8.65 0
      vertex 49.8 8.65 3
    endloop
  endfacet
  facet normal 0.98768 0.156486 0
    outer loop
      vertex 49.8 8.65 0
      vertex 49.9224 7.87746 3
      vertex 49.9224 7.87746 0
    endloop
  endfacet
  facet normal -0.98768 -0.156486 0
    outer loop
      vertex 54.8 8.65 0
      vertex 54.6776 9.42254 3
      vertex 54.6776 9.42254 0
    endloop
  endfacet
  facet normal -0.98768 -0.156486 0
    outer loop
      vertex 54.6776 9.42254 3
      vertex 54.8 8.65 0
      vertex 54.8 8.65 3
    endloop
  endfacet
  facet normal -0.891016 -0.453971 0
    outer loop
      vertex 54.6776 9.42254 0
      vertex 54.3225 10.1195 3
      vertex 54.3225 10.1195 0
    endloop
  endfacet
  facet normal -0.891016 -0.453971 0
    outer loop
      vertex 54.3225 10.1195 3
      vertex 54.6776 9.42254 0
      vertex 54.6776 9.42254 3
    endloop
  endfacet
  facet normal -0.453951 0.891027 0
    outer loop
      vertex 53.7695 6.62746 0
      vertex 53.0725 6.27236 3
      vertex 53.7695 6.62746 3
    endloop
  endfacet
  facet normal -0.453951 0.891027 0
    outer loop
      vertex 53.0725 6.27236 3
      vertex 53.7695 6.62746 0
      vertex 53.0725 6.27236 0
    endloop
  endfacet
  facet normal 0.156494 -0.987679 0
    outer loop
      vertex 51.5275 11.0276 0
      vertex 52.3 11.15 3
      vertex 51.5275 11.0276 3
    endloop
  endfacet
  facet normal 0.156494 -0.987679 0
    outer loop
      vertex 52.3 11.15 3
      vertex 51.5275 11.0276 0
      vertex 52.3 11.15 0
    endloop
  endfacet
  facet normal 0.891016 -0.453971 0
    outer loop
      vertex 49.9224 9.42254 3
      vertex 50.2775 10.1195 0
      vertex 50.2775 10.1195 3
    endloop
  endfacet
  facet normal 0.891016 -0.453971 0
    outer loop
      vertex 50.2775 10.1195 0
      vertex 49.9224 9.42254 3
      vertex 49.9224 9.42254 0
    endloop
  endfacet
  facet normal -0.156494 -0.987679 0
    outer loop
      vertex 52.3 11.15 0
      vertex 53.0725 11.0276 3
      vertex 52.3 11.15 3
    endloop
  endfacet
  facet normal -0.156494 -0.987679 -0
    outer loop
      vertex 53.0725 11.0276 3
      vertex 52.3 11.15 0
      vertex 53.0725 11.0276 0
    endloop
  endfacet
  facet normal -0.891006 0.453992 0
    outer loop
      vertex 54.3225 7.18054 0
      vertex 54.6776 7.87746 3
      vertex 54.6776 7.87746 0
    endloop
  endfacet
  facet normal -0.891006 0.453992 0
    outer loop
      vertex 54.6776 7.87746 3
      vertex 54.3225 7.18054 0
      vertex 54.3225 7.18054 3
    endloop
  endfacet
  facet normal -0.707107 -0.707107 0
    outer loop
      vertex 54.3225 10.1195 0
      vertex 53.7695 10.6725 3
      vertex 53.7695 10.6725 0
    endloop
  endfacet
  facet normal -0.707107 -0.707107 0
    outer loop
      vertex 53.7695 10.6725 3
      vertex 54.3225 10.1195 0
      vertex 54.3225 10.1195 3
    endloop
  endfacet
  facet normal 0.891006 0.453992 0
    outer loop
      vertex 50.2775 7.18054 3
      vertex 49.9224 7.87746 0
      vertex 49.9224 7.87746 3
    endloop
  endfacet
  facet normal 0.891006 0.453992 0
    outer loop
      vertex 49.9224 7.87746 0
      vertex 50.2775 7.18054 3
      vertex 50.2775 7.18054 0
    endloop
  endfacet
  facet normal -0.453951 -0.891027 0
    outer loop
      vertex 53.0725 11.0276 0
      vertex 53.7695 10.6725 3
      vertex 53.0725 11.0276 3
    endloop
  endfacet
  facet normal -0.453951 -0.891027 -0
    outer loop
      vertex 53.7695 10.6725 3
      vertex 53.0725 11.0276 0
      vertex 53.7695 10.6725 0
    endloop
  endfacet
  facet normal 0.98768 -0.156486 0
    outer loop
      vertex 49.8 8.65 3
      vertex 49.9224 9.42254 0
      vertex 49.9224 9.42254 3
    endloop
  endfacet
  facet normal 0.98768 -0.156486 0
    outer loop
      vertex 49.9224 9.42254 0
      vertex 49.8 8.65 3
      vertex 49.8 8.65 0
    endloop
  endfacet
  facet normal 0.156444 0.987687 -0
    outer loop
      vertex 52.3 6.15 0
      vertex 51.5275 6.27236 3
      vertex 52.3 6.15 3
    endloop
  endfacet
  facet normal 0.156444 0.987687 0
    outer loop
      vertex 51.5275 6.27236 3
      vertex 52.3 6.15 0
      vertex 51.5275 6.27236 0
    endloop
  endfacet
  facet normal -0.707158 0.707056 0
    outer loop
      vertex 53.7695 6.62746 0
      vertex 54.3225 7.18054 3
      vertex 54.3225 7.18054 0
    endloop
  endfacet
  facet normal -0.707158 0.707056 0
    outer loop
      vertex 54.3225 7.18054 3
      vertex 53.7695 6.62746 0
      vertex 53.7695 6.62746 3
    endloop
  endfacet
  facet normal 0.707158 0.707056 0
    outer loop
      vertex 50.8305 6.62746 3
      vertex 50.2775 7.18054 0
      vertex 50.2775 7.18054 3
    endloop
  endfacet
  facet normal 0.707158 0.707056 0
    outer loop
      vertex 50.2775 7.18054 0
      vertex 50.8305 6.62746 3
      vertex 50.8305 6.62746 0
    endloop
  endfacet
  facet normal -0.156444 0.987687 0
    outer loop
      vertex 53.0725 6.27236 0
      vertex 52.3 6.15 3
      vertex 53.0725 6.27236 3
    endloop
  endfacet
  facet normal -0.156444 0.987687 0
    outer loop
      vertex 52.3 6.15 3
      vertex 53.0725 6.27236 0
      vertex 52.3 6.15 0
    endloop
  endfacet
  facet normal -0.98768 0.156486 0
    outer loop
      vertex 54.6776 7.87746 0
      vertex 54.8 8.65 3
      vertex 54.8 8.65 0
    endloop
  endfacet
  facet normal -0.98768 0.156486 0
    outer loop
      vertex 54.8 8.65 3
      vertex 54.6776 7.87746 0
      vertex 54.6776 7.87746 3
    endloop
  endfacet
  facet normal 0.707107 -0.707107 0
    outer loop
      vertex 50.2775 10.1195 3
      vertex 50.8305 10.6725 0
      vertex 50.8305 10.6725 3
    endloop
  endfacet
  facet normal 0.707107 -0.707107 0
    outer loop
      vertex 50.8305 10.6725 0
      vertex 50.2775 10.1195 3
      vertex 50.2775 10.1195 0
    endloop
  endfacet
  facet normal 0.453951 -0.891027 0
    outer loop
      vertex 50.8305 10.6725 0
      vertex 51.5275 11.0276 3
      vertex 50.8305 10.6725 3
    endloop
  endfacet
  facet normal 0.453951 -0.891027 0
    outer loop
      vertex 51.5275 11.0276 3
      vertex 50.8305 10.6725 0
      vertex 51.5275 11.0276 0
    endloop
  endfacet
  facet normal 0.453951 0.891027 -0
    outer loop
      vertex 51.5275 6.27236 0
      vertex 50.8305 6.62746 3
      vertex 51.5275 6.27236 3
    endloop
  endfacet
  facet normal 0.453951 0.891027 0
    outer loop
      vertex 50.8305 6.62746 3
      vertex 51.5275 6.27236 0
      vertex 50.8305 6.62746 0
    endloop
  endfacet
endsolid OpenSCAD_Model
